<!-- Created with Inkscape (http://www.inkscape.org/) -->
<svg xmlns:rdf="http://www.w3.org/1999/02/22-rdf-syntax-ns#" xmlns="http://www.w3.org/2000/svg" height="990" width="765" version="1.0" xmlns:cc="http://creativecommons.org/ns#" xmlns:dc="http://purl.org/dc/elements/1.1/">
	<metadata>
		<rdf:RDF>
			<cc:Work rdf:about="">
				<dc:format>image/svg+xml</dc:format>
				<dc:type rdf:resource="http://purl.org/dc/dcmitype/StillImage"/>
				<dc:title/>
			</cc:Work>
		</rdf:RDF>
	</metadata>
	<path fill="#000" d="m275.1,919.8c-0.7217-0.7217-1.312-3.99-1.312-7.263,0-4.588,2.104-8.213,9.186-15.83,9.714-10.44,11.27-15.02,6.081-17.92-3.487-1.952-10.19,0.7624-20,8.098-3.11,2.325-9.55,4.812-14.31,5.526-4.761,0.7139-10.75,2.942-13.3,4.952-3.759,2.957-5.167,3.22-7.383,1.381-1.836-1.524-6.63-1.96-14.55-1.324-6.954,0.5581-12.59,0.1678-13.71-0.9484-1.043-1.043-7.098-4.199-13.46-7.013-8.719-3.859-12.03-6.396-13.46-10.32-4.96-13.6-5.665-14.06-19.97-13.04-11.47,0.8205-13.58,1.557-17.09,5.965-2.548,3.196-4.47,4.284-5.273,2.985-1.644-2.659-25.48-2.683-28.14-0.028-1.458,1.458-3.297,1.176-6.65-1.021-3.063-2.007-9.224-3.159-18.17-3.398-10.46-0.2793-14.09-1.096-15.95-3.588-4.063-5.441-9.046-3.962-11.48,3.406-2.153,6.524-2.315,6.613-9.999,5.461-8.558-1.283-13.06,1.602-10.98,7.032,1.902,4.956-5.251,3.495-9.163-1.872-2.866-3.932-3.026-5.034-0.9219-6.367,1.399-0.8864,3.493-1.624,4.652-1.64,3.731-0.05,4.551-5.964,1.323-9.532-2.688-2.971-2.777-4.064-0.6548-8.03,1.351-2.525,2.939-4.596,3.528-4.6,0.5892,0,3.56-2.065,6.602-4.578l5.531-4.568-4.424-3.474c-4.219-3.313-4.283-3.676-1.383-7.817,1.673-2.388,3.042-7.88,3.042-12.2,0-7.088,0.5896-8.127,5.992-10.55,7.258-3.261,12.45-7.286,12.45-9.656,0-3.658-11.63-13.51-15.95-13.51-2.546,0-4.966-1.38-5.659-3.226-1.548-4.127-5.434-7.342-12.96-10.72-4.027-1.81-5.992-3.973-5.992-6.598,0-2.148-2.985-6.721-6.633-10.16-3.998-3.77-6.219-7.333-5.592-8.967,0.5723-1.491,0.1824-7.354-0.8664-13.03-1.571-8.499-1.431-10.69,0.7968-12.45,1.487-1.176,3.247-3.968,3.91-6.205,0.97-3.27-0.0697-4.896-5.305-8.297-8.454-5.492-9.425-8.439-4.829-14.66,4.482-6.062,4.741-8.675,1.002-10.11-4.169-1.6-3.33-5.404,1.956-8.868,6.192-4.057,9.106-2.856,9.106,3.753,0,4.599,0.7944,5.459,5.531,5.994,7.43,0.8384,10.14,3.413,10.14,9.633,0,6.102,0.7072,6.685,9.141,7.536,5.8,0.5856,6.478,0.1438,7.516-4.888,0.6272-3.042,2.118-7.351,3.313-9.575,1.96-3.647,1.778-3.968-1.849-3.27-2.212,0.4259-4.622,1.745-5.354,2.93-2.455,3.973-7.236,0.1493-7.236-5.787,0-7.361,7.124-14.04,16.7-15.66,3.987-0.6737,7.718-1.982,8.29-2.908,2.099-3.397,8.198-1.796,8.198,2.153,0,2.763-2.062,4.646-7.375,6.733-5.688,2.234-7.375,3.887-7.375,7.226,0,5.671,1.754,5.464,10.14-1.202,4.073-3.236,9.15-5.531,12.24-5.531,4.833,0,5.278,0.5605,5.278,6.658v6.658l6.914-1.251c3.803-0.6881,10.01-3.269,13.79-5.736,7.953-5.189,13.67-5.664,19.45-1.615,4.806,3.366,5.308,8.58,1.158,12.02-2.506,2.08-3.421,1.802-6.2-1.883-4.963-6.579-8.101-3.098-3.706,4.11,1.987,3.259,3.616,7.643,3.62,9.742s2.766,7.077,6.137,11.06c3.372,3.985,8.088,10.77,10.48,15.08s4.819,7.832,5.393,7.828c3.135-0.024,17.47-11.52,25.91-20.78,11.08-12.16,13.91-12.44,23.07-2.297,3.042,3.367,8.02,7.372,11.06,8.901,3.042,1.528,10.09,8.202,15.67,14.83,5.577,6.629,11.08,12.1,12.22,12.16,1.145,0.059,5.076-3.547,8.734-8.011,5.923-7.228,7.715-8.243,16.35-9.268,17.9-2.123,27.67-2.081,34.15,0.1475,7.176,2.467,17.25,11.46,22.72,20.27,8.178,13.19,46.12,32.05,67.24,33.43,11.46,0.751,14.17,0.2581,22.92-4.179,13.71-6.946,21.31-5.857,37.32,5.35,13.8,9.66,21.75,11.59,23.43,5.696,1.416-4.965,14.1-24.54,20.15-31.09,8.002-8.67,18.29-14.21,28.5-15.35,9.951-1.112,17.64-7.068,17.79-13.77,0.0384-1.771,3.563-4.755,8.357-7.075l8.291-4.013,9.225,6.771c5.074,3.724,9.195,7.323,9.159,7.997-0.036,0.6742-1.251,3.3-2.7,5.835s-2.664,6.88-2.7,9.655c-0.0507,3.92-1.401,5.605-6.057,7.552-5.475,2.29-6.191,3.561-8.297,14.73-1.268,6.721-2.305,14.63-2.305,17.59,0,3.632-1.432,6.306-4.428,8.269-2.436,1.596-7.125,7.063-10.42,12.15-6.009,9.273-16.51,16.45-28.24,19.3-5.501,1.337-19.6,11.64-19.6,14.32,0,2.573,8.145,1.713,12.47-1.317,2.24-1.569,5.121-2.678,6.402-2.465,4.6,0.764,12.61-2.55,15.24-6.308,1.527-2.18,5.028-3.992,8.128-4.206,2.995-0.2075,7.347-1.708,9.669-3.335,2.323-1.627,5.905-2.97,7.961-2.986,3.808-0.028,16.74-4.063,18.43-5.748,0.5105-0.5105,1.822-7.352,2.914-15.2,1.092-7.852,3.668-18.17,5.725-22.92,2.056-4.755,4.027-10.07,4.378-11.81,0.892-4.42,18.89-25.73,24.67-29.21,9.494-5.718,31.86-12.79,40.37-12.78,5.318,0.0184,12.45,1.788,18.51,4.609,11.32,5.271,15.09,5.613,22.03,2.001,11.42-5.941,16.33-15.85,7.861-15.85-5.623,0-7.967-4.635-6.56-12.97,1.13-6.688,0.8298-7.681-2.593-8.576-2.129-0.5568-3.871-1.617-3.871-2.355,0-1.642,7.218-8.339,7.847-7.281,0.2473,0.4163,1.384,2.416,2.527,4.444,1.412,2.506,3.774,3.585,7.375,3.367,8.968-0.5432,12.87,0.9617,15.08,5.81l2.121,4.655,10.09-6.455c5.55-3.55,11.38-6.455,12.94-6.455,1.956,0,2.854-1.779,2.854-5.652,0-9.963,2.921-13.08,11.65-12.43l7.712,0.5716-0.5407-6.914c-0.6254-7.996,0.004-8.2,9.83-3.19,8.172,4.166,9.472,7.953,3.043,8.864-5.819,0.8249-7.054,5.206-3.272,11.61,3.132,5.301,3.107,5.402-2.761,11.27-5.754,5.754-5.861,6.148-3.774,13.95,4.488,16.78-5.571,32.44-27.31,42.52-8.475,3.929-13.91,4.924-31.45,5.759-21.77,1.036-25.81,2.052-25.81,6.48,0,1.404-4.489,7.401-9.976,13.33-10.31,11.13-15.79,14.22-42.24,23.84-14.89,5.412-27.07,13.65-27.07,18.32,0,1.469,2.057,3.608,4.57,4.753,5.029,2.292,30.41-1.56,47.98-7.28,12.37-4.029,36.17-4,47.43,0.059,4.789,1.726,9.968,2.655,11.51,2.064,1.716-0.6586,3.286,0.2485,4.057,2.343,0.6912,1.88,4.852,8.607,9.245,14.95,6.005,8.667,7.582,12.33,6.352,14.75-0.9003,1.77-2.612,7.368-3.803,12.44-1.192,5.07-2.907,9.481-3.813,9.802-0.9054,0.321-3.874,2.336-6.597,4.478-3.22,2.533-8.125,4.055-14.03,4.353-4.995,0.2526-10.3,1.474-11.8,2.714-2.145,1.78-3.638,1.762-7.095-0.089-2.418-1.294-7.55-1.958-11.46-1.482-5.517,0.6709-8.219-0.083-12.22-3.406-3.844-3.191-6.518-3.992-10.6-3.175-4.659,0.9318-5.461,0.526-5.461-2.761,0-4.24-4.953-7.67-11.07-7.67-2.167,0-5.23-1.29-6.806-2.866-4.493-4.493-12.1-2.61-15.3,3.79-6.935,13.84-11.59,18.43-24.7,24.35-29.09,13.12-35.4,13.1-83.84-0.3092-5.439-1.506-14.57-2.875-20.28-3.043-9.799-0.2884-10.81,0.1087-17.77,6.976-4.056,4.005-9.449,8.715-11.98,10.47l-4.609,3.184,4.609,3.578c2.535,1.968,7.306,4.103,10.6,4.745,7.468,1.455,7.599,3.331,0.4396,6.297-7.416,3.072-21.75,1.51-31.16-3.394l-7.606-3.964,1.154,4.596c1.053,4.197,0.63,4.596-4.87,4.596-5.009,0-7.956-2.019-17.49-11.98-7.249-7.577-12.94-11.98-15.48-11.98-3.784,0-3.851,0.2387-1.148,4.098,1.579,2.254,2.87,4.858,2.87,5.787,0,3.448-21.32-0.5677-32.27-6.078-6.084-3.062-11.62-5.586-12.29-5.609-1.87-0.063-7.061,15.13-6.573,19.25,0.6966,5.878-5.484,5.504-11.7-0.7078-4.24-4.24-6.436-5.246-8.752-4.009-1.701,0.9084-7.646,2.142-13.21,2.741-7.187,0.7736-10.95,2.187-12.98,4.877-1.572,2.083-3.448,3.198-4.17,2.476zm150.2-12.86c-2.245-1.573-7.86-6.129-12.48-10.12-9.748-8.436-15.04-11.3-26.7-14.45-11.62-3.14-19.06-2.091-19.76,2.785-0.4441,3.108,0.4361,3.841,4.609,3.842,8.252,0,18.93,6.146,24.01,13.81,5.628,8.505,8.639,9.178,6.965,1.556-0.6682-3.042-0.5267-5.515,0.3144-5.494,0.8411,0.02,6.922,2.836,13.51,6.257,11.98,6.216,17.23,7.222,9.523,1.824zm-100.4-17.35c1.498-12.65-1.814-16.84-20.64-26.12-11.34-5.594-16.79-9.502-19.97-14.31-8.667-13.1-7.838-21.31,0.8946-8.873,6.005,8.554,7.932,9.918,26.82,18.99,9.323,4.476,19.97,10.79,23.66,14.03,6.98,6.128,10.69,5.157,8.742-2.289-2.088-7.984-17.68-17.47-26.79-16.3-5.439,0.7018-8.738-0.3217-8.738-2.71,0-5.548,14.11-6.508,25.96-1.766,8.941,3.578,18.29,15.32,18.29,22.98,0,3.187-2.23,7.73-5.777,11.77-6.863,7.816-5.895,10.07,2.269,5.293,6.429-3.766,8.274-6.382,9.874-14,0.9308-4.432,1.691-4.892,6.495-3.932,6.524,1.305,15.37-0.6102,13.89-3.006-0.581-0.94-2.287-1.237-3.79-0.6601-1.762,0.6761-6.881-3.286-14.4-11.14-7.514-7.855-13.24-12.29-16.11-12.47-2.443-0.1512-13.98-0.3577-25.64-0.4609-24.56-0.2176-31.79-2.854-36.1-13.16-3.636-8.703-3.289-12.82,1.528-18.12,6.396-7.036,11.14-7.567,17.77-1.989,5.24,4.409,5.741,4.519,5.741,1.265,0-8.856-13.87-13.08-23.1-7.037-5.134,3.364-11.82,15.95-11.89,22.39-0.0924,8.7,6.107,22.82,15.63,35.62,12.24,16.44,13.16,23.23,4.534,33.32-6.447,7.543-6.762,9.288-1.677,9.288,10.82,0,18.35-9.108,18.35-22.21,0-4.008,0.8502-7.288,1.889-7.288,3.385,0,5.821,9.939,4.647,18.96-0.6313,4.85-0.5786,9.739,0.1171,10.86,1.955,3.163,6.298-6.613,7.52-16.93zm36.4,6.139c-3.555-2.6-7.242-2.384-7.242,0.4243,0,0.8995,2.074,2.673,4.609,3.94,5.719,2.86,7.799-0.5874,2.633-4.365zm75.39-2.671c9.155-4.715,11.98-8.906,10.99-16.29-0.5179-3.862,0.059-10.05,1.282-13.76,2.862-8.672-0.6792-14.65-11.62-19.62-12.77-5.8-20.13-4.678-42.55,6.492l-20.11,10.02,7.697,3.08c6.582,2.633,7.625,3.783,7.2,7.935-0.4768,4.658-0.1257,4.856,8.63,4.856,7.874,0,9.266,0.5579,10.14,4.065,1.291,5.178,14.43,15.18,20.03,15.24,2.348,0.028,6.082-0.8821,8.297-2.023zm-7.957-13.4c0-1.412,1.245-3.046,2.766-3.63,1.881-0.7218,2.766,0.1,2.766,2.568,0,1.997-1.244,3.63-2.766,3.63-1.521,0-2.766-1.156-2.766-2.568zm-5.531-11.15c0-3.213,3.023-5.346,5.451-3.846,2.454,1.516,0.2438,6.503-2.882,6.503-1.413,0-2.568-1.196-2.568-2.657zm-15.61-17.52c-1.78-2.88,0.5619-5.633,4.79-5.633,2.535,0,3.518,1.017,3.097,3.205-0.7075,3.674-6.092,5.331-7.887,2.428zm-151,32.09c13.26-5.227,24.69-12.57,24.69-15.87,0-1.059-1.696-4.308-3.768-7.218s-4.975-9.355-6.45-14.32c-2.884-9.712-2.96-9.762-26.99-17.64-10.56-3.46-39.12-4.196-46.67-1.203-20.76,8.226-23.81,34.69-5.907,51.39,12.82,11.96,41.63,14.11,65.11,4.857zm-29.28-5.651c-2.008-2.008,0.4186-4.416,4.451-4.416,2.166,0,3.41,0.967,2.965,2.305-0.8766,2.633-5.56,3.966-7.416,2.111zm-28.18-6.42c-1.582-2.56,1.925-6.169,4.467-4.598,2.117,1.309,0.7616,6.602-1.691,6.602-0.8457,0-2.095-0.9022-2.776-2.004zm25.99-11.54c-3.668-2.682-2.506-6.74,1.93-6.74,3.352,0,5.555,5.157,3.206,7.506-1.073,1.073-3.017,0.7832-5.136-0.7661zm28.85-4.435c0.3418-1.775,1.843-3.226,3.336-3.226s2.995,1.452,3.336,3.226c0.436,2.264-0.5595,3.226-3.336,3.226-2.777,0-3.772-0.9628-3.336-3.226zm-23.09-9.065c-1.991-1.991-1.421-3.834,1.536-4.969,1.881-0.7218,2.766,0.1,2.766,2.568,0,3.623-1.977,4.726-4.302,2.4zm-31.33-3.671c-1.667-1.667,2.465-6.366,4.495-5.111,2.542,1.571,1.923,6.324-0.8235,6.324-1.352,0-3.004-0.5459-3.671-1.213zm362.1,42.63c10.71-3.777,24.33-14.27,28.44-21.9,1.917-3.56,3.108-6.713,2.645-7.007-0.4626-0.2935-3.278-1.781-6.256-3.305-6.677-3.417-9.552-12.51-6.617-20.93,1.684-4.832,1.496-6.14-1.167-8.087-6.526-4.772-22.77-1.648-47.64,9.166-40.75,17.71-38.87,16.71-38.22,20.35,0.7978,4.481-5.277,5.688-6.431,1.278-0.8751-3.346-1.95-3.639-9.509-2.59-13.4,1.86-21.1,6.308-23.07,13.34-2.374,8.462,0.1776,10.27,15.77,11.15,10.71,0.6054,13.44,0.1913,14.81-2.246,0.9198-1.644,3.807-2.988,6.416-2.988,3.944,0,4.368,0.4525,2.515,2.685-1.226,1.477-1.734,3.484-1.13,4.461,1.057,1.71,21.05,8.338,30.56,10.13,7.629,1.438,30.79-0.6532,38.9-3.512zm-28.7-2.605c-1.621-2.623,0.4462-5.628,3.871-5.628,1.615,0,2.541,1.295,2.196,3.074-0.7182,3.703-4.399,5.253-6.067,2.555zm-28.64-11.91c0-1.68,1.291-2.256,3.667-1.634,2.017,0.5274,3.212,1.694,2.657,2.593-1.61,2.605-6.324,1.89-6.324-0.9588zm53.84-3.307c-2.505-2.505,0.3644-7.006,4.466-7.006,3.233,0,3.295,4.452,0.0992,7.105-1.78,1.477-3.016,1.45-4.565-0.1zm-32.82-2.212c-0.6749-1.759-0.3145-4.111,0.801-5.226,1.475-1.475,2.363-1.156,3.255,1.17,0.6749,1.759,0.3145,4.11-0.801,5.226-1.475,1.475-2.363,1.156-3.255-1.17zm-7.266-17.82c-0.6684-1.082-0.7532-2.429-0.1883-2.993,1.517-1.517,6.717,0.8509,6.717,3.058,0,2.502-4.973,2.453-6.529-0.065zm29.65-5.281c-0.5834-0.944-0.2175-2.238,0.813-2.875,2.2-1.36,5.561,0.3662,5.561,2.856,0,2.243-4.99,2.258-6.374,0.018zm153.3,24.58c2.861-2.13,5.466-5.656,5.79-7.836s1.47-3.963,2.547-3.963c3.388,0,0.3501-13.74-4.737-21.43-6.077-9.182-12.2-12.77-26.06-15.28-12.69-2.295-34.63,0.5134-53.46,6.844-6.084,2.045-16.04,4.295-22.12,5-13.48,1.562-19.8,5.115-19.01,10.69,0.4362,3.065,2.343,4.389,7.949,5.519,22.01,4.439,27.01,6.031,40.05,12.74,20.88,10.75,27.66,12.48,46.93,12,13.89-0.3462,17.86-1.116,22.12-4.294zm-12-9.327c0.777-4.035,6.134-4.606,6.134-0.6536,0,1.507-1.527,3.034-3.394,3.394-2.464,0.4744-3.215-0.2764-2.74-2.74zm-34.08-7.35c-2.404-2.404-1.256-4.34,2.574-4.34,2.146,0,3.519,0.9663,3.111,2.19-0.8981,2.694-3.977,3.859-5.685,2.151zm-23.39-8.028c0-2.376,0.9337-3.684,2.305-3.227,1.268,0.4224,2.305,1.874,2.305,3.227,0,1.352-1.037,2.804-2.305,3.226-1.371,0.4569-2.305-0.8503-2.305-3.226zm40.87-1.844c0.928-2.784,3.893-3.071,4.763-0.4609,0.4225,1.268-0.6146,2.305-2.305,2.305s-2.796-0.8297-2.458-1.844zm-60.84-4.882c0.3572-1.855,2.167-3.665,4.022-4.022,2.436-0.469,3.192,0.2877,2.723,2.723-0.3572,1.855-2.167,3.665-4.022,4.022-2.436,0.469-3.192-0.2876-2.723-2.723zm45.78-8.024c0-1.014,1.293-1.844,2.874-1.844s2.362,0.8297,1.735,1.844c-0.6267,1.014-1.92,1.844-2.874,1.844-0.9542,0-1.735-0.8297-1.735-1.844zm-513.5,34.23c7.098-1.604,16.02-2.91,19.82-2.901,5.537,0.018,6.914-0.6733,6.914-3.442,0-1.901,0.4942-5.928,1.098-8.948,1.005-5.024,0.4939-5.733-6-8.331-6.631-2.653-23.44-18.43-27.61-25.92-2.368-4.249-15.24-8.749-28.6-10-9.039-0.8471-10.86-0.4576-13.78,2.95-1.849,2.16-4.007,3.927-4.796,3.927-0.7887,0-1.434-5.263-1.434-11.7,0-17.35-11.52-46.95-28.48-73.16-6.581-10.17-9.279-12.7-16.5-15.46-10.69-4.084-16.21-2.839-21.73,4.904-3.367,4.72-4.264,8.389-4.238,17.33,0.0291,10.13,0.7957,12.45,7.163,21.7,4.685,6.803,12.67,14.42,23.28,22.21,25.09,18.42,29.25,26.22,17.51,32.85-16.27,9.19-20.75,26.81-9.942,39.12,10.37,11.81,19.92,15.98,41.86,18.27,19.8,2.065,21.98,1.902,45.46-3.404zm-29.32-8.118c-0.5861-0.9485,0.0959-2.688,1.515-3.866,1.526-1.267,3.017-1.438,3.647-0.4178,0.5861,0.9484-0.0959,2.688-1.515,3.866-1.526,1.267-3.017,1.438-3.647,0.4178zm-25.64-5.165c-1.721-1.721,0.3586-4.352,3.439-4.352,1.461,0,2.657,1.244,2.657,2.766,0,2.777-3.892,3.79-6.096,1.586zm-19.58-5.11c-1.548-1.866-1.587-2.955-0.1376-3.851,3.201-1.978,7.43,0.479,6.226,3.617-1.354,3.529-3.292,3.603-6.088,0.2339zm75.46-0.1641c0-1.521,1.245-2.766,2.766-2.766s2.766,1.245,2.766,2.766-1.245,2.766-2.766,2.766-2.766-1.244-2.766-2.766zm-20.08-10.82c-1.644-1.98-1.678-3.017-0.13-3.974,3.007-1.858,6.737,2.27,4.276,4.732-1.333,1.333-2.603,1.101-4.146-0.7578zm-30.3-5.593c-1.157-3.015,0.2026-4.79,3.67-4.79,1.352,0,2.458,1.659,2.458,3.687,0,4.192-4.624,5.024-6.129,1.102zm-28.9-1.717c0-3.827,2.182-5.087,4.901-2.831,3.574,2.966,3.041,5.289-1.213,5.289-2.028,0-3.687-1.106-3.687-2.458zm50.61-10.59c-0.6971-1.128,0.0752-3.393,1.716-5.034,2.749-2.749,2.984-2.671,2.984,0.9901,0,4.598-2.845,7.046-4.7,4.044zm-43.24-45.16c0-1.717,1.254-2.658,3.074-2.305,4.625,0.897,5.261,5.205,0.7673,5.205-2.265,0-3.841-1.19-3.841-2.901zm-16.59-0.5894c0-2.072,4.796-4.006,6.273-2.528,2.219,2.219,1.008,4.175-2.585,4.175-2.028,0-3.687-0.741-3.687-1.646zm-21.21-14.96c-0.6311-1.021,0.1854-2.368,1.814-2.993,3.53-1.355,5.497,0.1383,3.801,2.884-1.531,2.477-4.121,2.528-5.615,0.1088zm16.5-5.679c-1.609-2.604,1.945-6.157,4.548-4.548,1.102,0.6814,2.004,2.434,2.004,3.896,0,3.104-4.745,3.577-6.552,0.6525zm-22.95-19.33c0-1.717,1.254-2.658,3.074-2.305,4.625,0.897,5.261,5.205,0.7674,5.205-2.265,0-3.841-1.19-3.841-2.901zm14.97-6.969c-2.241-2.7-0.969-4.88,2.848-4.88,2.747,0,3.366,4.753,0.8235,6.324-0.8992,0.5557-2.551-0.094-3.671-1.444zm8.626,138.6c0.3048-2.544-0.7282-5.689-2.295-6.99-2.349-1.949-3.722-1.793-7.812,0.8867l-4.963,3.252,5.414,4.332c6.438,5.15,8.907,4.772,9.656-1.48zm345.1-19.98c16.27-7.616,27.8-9.332,37.61-5.601,3.61,1.373,5.369,1.073,7.767-1.325,7.392-7.392,15.19-31.79,10.16-31.79-0.886,0-8.146-4.419-16.13-9.82-7.987-5.401-16.08-10.39-17.98-11.09-2.085-0.7676-8.252,0.6422-15.51,3.544-10.57,4.227-13.88,4.704-26.96,3.885-8.203-0.5137-17.29-1.537-20.19-2.275-4.841-1.231-5.168-1.003-3.97,2.77,2.252,7.095-5.019,3.718-9.189-4.267-2.529-4.844-6.596-8.608-12.92-11.96-14.49-7.679-23.17-14.68-33.84-27.31-8.005-9.47-10.99-11.75-15.67-11.97-10.1-0.4882-16.58-0.1309-26.84,1.478-9.346,1.466-10.34,2.136-15.42,10.42-5.93,9.656-5.931,9.483,0.0402,11.32,3.109,0.9555,5.262,0.044,8.726-3.693,4.249-4.585,4.691-4.699,5.827-1.5,1.756,4.947,8.305,11.82,10.17,10.67,0.8666-0.5356,1.576-3.365,1.576-6.287,0-5.506,2.611-8.765,4.531-5.658,0.6041,0.9775,1.41,5.73,1.79,10.56,0.7967,10.11,3.304,12.74,20.39,21.36,27.45,13.85,63.21,40.78,73.77,55.54,9.08,12.69,11.17,12.88,32.27,3.007zm16.64-13.77c-3.488-4.203-1.422-7.622,2.336-3.865,3.394,3.394,4.131,6.568,1.526,6.568-0.8899,0-2.628-1.217-3.862-2.704zm12.94-3.656c-2.831-3.014-3.813-5.62-2.952-7.836,1.159-2.983,1.745-2.795,5.764,1.853,7.736,8.944,5.146,14.45-2.813,5.983zm-69.78-3.228c-2.501-2.501-2.975-7.006-0.7375-7.006,2.298,0,5.9,4.165,5.9,6.822,0,2.998-2.267,3.08-5.162,0.1844zm14.51-8.674c-4.434-6.227-4.859-9.395-1.259-9.395,2.961,0,8.509,7.772,8.509,11.92,0,4.414-3.07,3.344-7.249-2.524zm64.56-0.8549c-3.842-6.217-5.053-12.24-2.455-12.21,2.188,0.02,9.68,11.87,9.68,15.31,0,4.947-3.065,3.633-7.225-3.097zm-50.58-1.927c-3.38-5.159-4.001-10.3-1.243-10.3,0.988,0,3.133,2.584,4.766,5.743,3.799,7.345,0.8247,11.19-3.523,4.557zm16.64-2.566c-3.633-4.015-4.213-12.1-0.7861-10.97,3.88,1.283,8.061,10.2,5.829,12.43-1.374,1.374-2.868,0.9408-5.043-1.463zm10.89-8.92c-1.544-4.022,0.5059-5.892,2.684-2.448,2.18,3.448,2.227,5.478,0.1252,5.478-0.9056,0-2.17-1.363-2.809-3.03zm-95.9-4.206c-3.89-4.298-0.7022-6.905,3.413-2.79,3.36,3.36,3.499,3.916,1.317,5.264-0.8785,0.5428-3.007-0.5703-4.729-2.474zm13.07-1.668c-3.229-3.567-4.062-7.69-1.555-7.69,2.718,0,9.669,7.56,8.577,9.328-1.6,2.589-3.624,2.116-7.021-1.638zm-49.08-26.01c-2.68-5.007-2.374-9.34,0.6597-9.34,2.819,0,4.807,3.874,4.807,9.369,0,4.563-3.017,4.546-5.466-0.03zm14.61-2.109c-1.128-2.107-1.513-5.219-0.855-6.914,1.081-2.788,1.447-2.74,3.829,0.4965,3,4.076,3.515,10.25,0.855,10.25-0.9784,0-2.702-1.724-3.829-3.832zm173.5,74.65c6.492-8.788,9.832-11.33,22.64-17.26,11.38-5.262,17.55-9.606,25.4-17.89,16.49-17.39,22.48-32.86,14.98-38.69-2.998-2.33-2.835-2.801,2.305-6.649,17.59-13.17,21-27.27,6.926-28.69-4.512-0.453-6.412,0.5666-9.725,5.219-3.605,5.063-3.821,6.337-1.732,10.24,1.312,2.452,2.039,4.71,1.615,5.018-0.424,0.3084-3.039,1.979-5.811,3.713-4.835,3.024-5.135,3.001-7.357-0.5579-1.736-2.78-4.298-3.71-10.21-3.71-6.716,0-9.172,1.17-16.45,7.836-12.43,11.38-22.14,27.48-27.46,45.55-2.556,8.667-7.273,20.89-10.48,27.16-5.733,11.19-5.775,11.46-2.385,15.21,5.518,6.097,9.538,4.626,17.75-6.495zm-0.9675-15.38c-1.364-2.206,2.105-4.392,4.561-2.875,2.062,1.274,0.7083,4.591-1.874,4.591-0.8944,0-2.103-0.7725-2.687-1.716zm30.34-17.64c0-1.521,1.346-2.766,2.991-2.766,2.45,0,2.576,0.5004,0.6961,2.766-1.262,1.521-2.608,2.766-2.991,2.766-0.3829,0-0.6961-1.244-0.6961-2.766zm-23.7-8.896c-1.674-2.017-1.538-3.113,0.6094-4.895,2.257-1.873,2.985-1.726,3.955,0.8011,1.654,4.31-1.808,7.416-4.564,4.094zm19.09-3.088c-1.344-2.175,0.3995-5.531,2.874-5.531,0.9542,0,1.735,1.659,1.735,3.688,0,3.888-2.682,4.961-4.609,1.844zm23.47-4.033c1.14-3.419,5.109-3.986,5.109-0.7299,0,1.606-1.314,2.919-2.919,2.919-1.606,0-2.591-0.9853-2.189-2.19zm-29.2-11.79c0.6155-1.604,1.119-3.263,1.119-3.688,0-0.424,0.8297-0.771,1.844-0.771s1.844,1.659,1.844,3.687c0,2.158-1.229,3.688-2.963,3.688-1.944,0-2.578-1.003-1.844-2.916zm18.02-5.629c0.3642-1.891,1.481-3.231,2.481-2.978,2.68,0.6792,2.211,4.632-0.6623,5.59-1.615,0.5386-2.25-0.3726-1.818-2.612zm16.28,1.279c0-0.9544,0.8297-2.248,1.844-2.874,1.014-0.6269,1.844,0.153,1.844,1.735,0,1.581-0.8297,2.874-1.844,2.874s-1.844-0.7808-1.844-1.735zm-23.55-15.2c1.14-3.419,5.109-3.986,5.109-0.7299,0,1.606-1.314,2.919-2.919,2.919-1.606,0-2.591-0.9853-2.189-2.19zm39.58-21.89c-0.6223-2.38,0.0328-4.194,1.753-4.854,3.606-1.384,6.972,2.102,5.567,5.765-1.587,4.135-6.148,3.567-7.319-0.9106zm-192.2,94.06c-9.401-9.519-23.92-20.2-27.47-20.2-0.58,0-1.054,1.714-1.054,3.808,0,13.21-16.02,19.38-20.4,7.868-2.561-6.735-6.336-4.278-6.336,4.124,0,10.75,5.541,12.9,31.62,12.31,11.31-0.2579,22.51,0.3118,24.89,1.266,9.564,3.831,9.237,1.453-1.258-9.174zm-166.8,0.5413c0.004-0.7605,2.459-3.027,5.459-5.037,4.094-2.743,5.203-4.654,4.447-7.664-1.169-4.656,2.356-12.34,4.931-10.75,0.9632,0.5952,1.751,3.616,1.751,6.714v5.632l8.758-1.311c10.69-1.6,11.52-2.076,11.52-6.592,0-1.968,1.245-3.578,2.766-3.578s2.766,1.196,2.766,2.657c0,3.09,0.997,3.786,7.719,5.391,4.531,1.082,5.002,0.6719,5.531-4.815,0.782-8.112,3.118-7.544,8.777,2.132,3.412,5.834,6.978,9.074,12.63,11.47l7.874,3.344,1.99-5.021c6.493-16.39,11.04-21.91,20.31-24.69,3.891-1.166,7.075-2.689,7.075-3.386,0-2.078-5.819-6.441-16.84-12.63-5.712-3.206-11.46-7.123-12.77-8.704-3.919-4.722-11.34-7.751-21.87-8.923-10.85-1.208-13.43-2.732-19.28-11.42-12.07-17.9-19.73-26.2-26.75-29.01-4.545-1.818-8.508-5.053-10.2-8.324-4.311-8.337-7.81-8.506-14.48-0.6999-3.237,3.788-8.707,9.376-12.16,12.42-14.75,13-19.36,17.65-15.81,15.93,2.406-1.169,4.759-1.203,6.453-0.092,2.193,1.438,1.747,2.561-2.507,6.324-6.43,5.688-11.33,6.1-9.951,0.8365,0.9589-3.667,0.8464-3.66-5.777,0.3309-22.31,13.44-37.07,26.01-36.15,30.77,3.031,15.59,3.48,15.88,11.88,7.672,6.976-6.819,9.519-7.008,8.827-0.6544-0.706,6.487,7.957,10.1,13.09,5.453,4.493-4.066,5.74-3.716,5.74,1.612,0,2.849,1.751,5.714,4.657,7.618,4.362,2.858,4.888,2.842,8.308-0.2535,4.983-4.51,6.507-2.224,3.989,5.982-1.885,6.143-1.68,7.3,1.996,11.24,7.348,7.871,25.29,14.98,25.31,10.03zm-13.4-7.093c-1.759-1.759,0.597-12.34,3.419-15.36,2.129-2.275,2.612-2.243,3.564,0.2362,2.399,6.252-3.366,18.74-6.983,15.12zm91.6-10.96c-3.74-8.951-0.8847-12.21,4.595-5.244,4.226,5.372,4.474,10.04,0.6018,11.33-1.333,0.4439-3.557-2.159-5.196-6.082zm-76.41-14.06c-0.0247-0.3379-0.5421-5.051-1.15-10.47-1.003-8.947-0.7858-9.797,2.349-9.193,2.817,0.5425,3.455,2.334,3.455,9.705,0,5.593-0.8788,9.333-2.305,9.808-1.268,0.4223-2.325,0.4915-2.349,0.153zm19.75-0.8835c-2.011-2.011-1.47-15.4,0.6218-15.4,2.293,0,5.843,8.777,5.099,12.61-0.6068,3.127-3.82,4.696-5.721,2.795zm18.2-2.907c-3.214-4.589-3.798-11.7-1.097-13.37,2.162-1.336,9.873,13.19,8.328,15.69-1.761,2.849-4.149,2.084-7.231-2.317zm17.47-3.612c-4.381-7.185-4.758-10.73-1.142-10.73,3.289,0,12.53,10.83,11.61,13.6-1.51,4.536-6.844,3.073-10.47-2.872zm20.36-2.85c-5.816-7.055-6.94-10.56-3.977-12.39,2.008-1.241,14.9,13.32,14.9,16.83,0,4.575-5.258,2.439-10.93-4.44zm-94.16,0.5708c0-5.645,1.754-10.29,3.885-10.29,1.874,0,2.206,7.458,0.5273,11.83-1.7,4.431-4.412,3.483-4.412-1.542zm-18.44-5.178c0-2.835,3.572-6.957,6.028-6.957,0.8818,0,1.338,1.858,1.014,4.129-0.6361,4.459-7.042,7.031-7.042,2.828zm-15.23-4.401c-1.54-2.491,5.023-10.57,7.827-9.633,1.643,0.5476,0.979,2.381-2.2,6.077-2.504,2.911-5.036,4.511-5.626,3.556zm69.65-14.75c-3.042-7.28-2.48-12.59,1.204-11.36,1.185,0.3949,3.197,3.732,4.473,7.415,1.917,5.537,1.878,7.062-0.2229,8.806-2.038,1.691-3.118,0.7288-5.453-4.86zm-82.68,3.607c-1.662-1.662,2.307-6.162,5.434-6.162,3.128,0,3.269,2.221,0.3274,5.162-2.5,2.5-4,2.76-5.761,0.9993zm68.2-1.86c-1.983-1.984-1.408-15.36,0.6602-15.36,2.191,0,5.486,7.823,5.486,13.03,0,3.455-3.643,4.841-6.146,2.338zm28.81-5.242c-2.283-4.788-2.547-7.01-1.015-8.543,1.533-1.533,3.06-0.4491,5.875,4.167,4.518,7.411,4.842,10.85,1.022,10.85-1.537,0-4.184-2.912-5.881-6.472zm-50.32,2.847c0-4.923,6.516-14.81,9.76-14.81,2.946,0,3.332,0.8579,2.28,5.07-0.696,2.789-2.574,6.522-4.173,8.297-3.134,3.477-7.867,4.347-7.867,1.445zm-11.06-8.074c0-3.337,6.005-8.582,9.825-8.582,4.247,0,3.857,2.316-1.186,7.053-4.83,4.537-8.639,5.212-8.639,1.529zm433.5,50.58c7.494-7.377,13.81-11.03,34.17-19.73,17.64-7.545,27.09-12.73,32.19-17.68,8.263-8.019,8.921-10.91,3.066-13.48-3.427-1.504-4.246-3.518-4.709-11.58-0.4969-8.66-1.122-9.981-5.531-11.7-12.87-5.005-39.76,3.47-54.9,17.3-10.63,9.718-17.52,22.11-21.99,39.58-4.658,18.2-4.701,22.72-0.2309,24.53,6.786,2.74,8.509,2.045,17.93-7.233zm-7.559-12.15c0-1.521,1.245-2.766,2.766-2.766s2.766,1.244,2.766,2.766c0,1.521-1.245,2.766-2.766,2.766s-2.766-1.245-2.766-2.766zm16.79-12.66c-1.644-1.981-1.678-3.017-0.13-3.974,3.007-1.858,6.737,2.27,4.276,4.731-1.333,1.333-2.603,1.102-4.146-0.7576zm24.98-4.253c-0.6672-0.6672-1.213-1.816-1.213-2.552,0-2.068,5.291-3.613,6.374-1.862,1.22,1.975-3.534,6.041-5.161,4.414zm-36.24-10.74c0-1.521,1.245-2.766,2.766-2.766s2.766,1.245,2.766,2.766-1.245,2.766-2.766,2.766-2.766-1.244-2.766-2.766zm50.67-0.9674c-0.7514-1.216-0.2228-2.921,1.175-3.789,3.066-1.905,4.719,1.472,2.035,4.156-1.228,1.228-2.299,1.106-3.209-0.3675zm-19.33-6.073c0-3.442,3.007-5.692,4.462-3.339,0.5659,0.9158-0.2064,2.69-1.716,3.943-2.232,1.852-2.745,1.74-2.745-0.6042zm11.06-11.09c0-3.146,1.926-5.083,3.864-3.886,1.86,1.15,0.0443,6.344-2.218,6.344-0.9056,0-1.646-1.106-1.646-2.458zm-15.67-1.229c-1.543-2.497,0.5392-5.531,3.796-5.531,2.99,0,3.113,0.3544,1.538,4.458-1.272,3.316-3.652,3.794-5.334,1.073zm-494.5,5.917,19.87-13.62-5.721-6.516c-3.147-3.584-6.546-8.326-7.553-10.54-2.464-5.409-8.945-9.572-8.945-5.746,0,3.592-5.767,6.534-12.81,6.534-4.871,0-6.605,1.452-12.24,10.26-5.59,8.738-6.2,10.69-4.126,13.19,1.339,1.614,2.187,4.396,1.884,6.183-0.9043,5.338,4.728,16.95,7.426,15.3,1.289-0.7845,11.28-7.555,22.21-15.05zm-11.28-10.05c-2.892-2.892-2.705-9.699,0.3354-12.22,3.366-2.793,4.901-0.7858,4.901,6.41,0,6.764-2.031,9.018-5.236,5.812zm12.33-4.049c-1.126-2.47-1.513-5.883-0.8605-7.582,1.813-4.725,6.674,0.2043,6.674,6.769,0,6.481-3.037,6.906-5.813,0.8136zm-26.07,1.492c-0.6356-0.6357,0.1304-3.643,1.702-6.682,2.538-4.909,3.167-5.218,5.619-2.766,2.332,2.332,2.38,3.371,0.3125,6.682-2.433,3.896-5.421,4.978-7.634,2.765zm624.2,3.542c21.04-7.417,31.93-19.49,30.55-33.88-0.4936-5.178-1.817-6.897-7.412-9.632-11.04-5.398-17.59-2.976-35.72,13.22-22.98,20.53-28.65,24.35-37.83,25.55-8.637,1.128-11.2,3.126-9.55,7.432,1.619,4.219,46.01,2.226,59.96-2.691zm-29.51-6.534c0.4225-1.268,1.874-2.305,3.227-2.305,1.352,0,2.804,1.037,3.227,2.305,0.457,1.371-0.8502,2.305-3.227,2.305-2.376,0-3.684-0.9339-3.227-2.305zm13.55,0.9484c-1.978-1.978-1.16-4.175,1.555-4.175,1.461,0,3.116,0.7427,3.677,1.651,1.173,1.898-3.57,4.186-5.232,2.524zm22.25-7.248c-2.325-2.325-1.223-4.302,2.4-4.302,2.469,0,3.29,0.8844,2.568,2.766-1.135,2.958-2.978,3.528-4.969,1.536zm-15.98-7.989c0-1.014,1.293-1.844,2.874-1.844s2.362,0.8297,1.735,1.844c-0.6267,1.014-1.92,1.844-2.874,1.844-0.9542,0-1.735-0.8297-1.735-1.844zm26.54-10.29c0.6155-1.604,1.119-3.263,1.119-3.687,0-0.4241,1.245-0.771,2.766-0.771,1.536,0,2.766,1.639,2.766,3.687,0,2.521-1.229,3.687-3.885,3.687-2.785,0-3.568-0.8258-2.766-2.916zm-16.4-0.771c-1.543-2.497,0.5392-5.531,3.796-5.531,2.99,0,3.113,0.3544,1.538,4.459-1.272,3.316-3.652,3.794-5.334,1.073zm-626.1,7.9c7.99-10.61,8.953-12.75,6.74-14.96-2.213-2.213-4.727-1.867-17.61,2.422l-15.03,5.004,3.172,4.888c1.744,2.688,4.69,5.972,6.546,7.297s3.374,3.607,3.374,5.07c0,5.225,3.615,2.48,12.8-9.72zm18.16-10.69c3.001-11.22,2.836-13.19-1.461-17.49-4.159-4.159-12.07-4.756-19.73-1.487-10.1,4.309-16.46,12.46-6.881,8.817,7.266-2.762,20.29-2.207,22.93,0.9776,1.495,1.801,1.89,5.361,1.126,10.14-1.602,10.02,1.261,9.337,4.015-0.9584zm588.6-2c0-1.834-1.144-4.9-2.542-6.812-2.423-3.314-2.768-3.328-7.375-0.3097-6.154,4.032-6.098,6,0.2374,8.314,7.559,2.761,9.68,2.5,9.68-1.192zm-629.6-11.4c-0.1143-8.57-1.373-10.2-5.854-7.599-3.155,1.834-3.161,1.96-0.1031,2.013,2.624,0.0443,3.019,1.048,2.019,5.126-0.6832,2.789-1.949,5.348-2.812,5.689-2.924,1.152,0.2772,3.651,3.573,2.789,2.449-0.6405,3.248-2.659,3.177-8.018zm-44.25,1.845c0-5.472-4.171-6.743-9.254-2.819-3.64,2.81-3.64,2.828,0,5.638,5.083,3.924,9.254,2.653,9.254-2.819zm727.4-7.4c1.961-1.05,3.566-2.688,3.566-3.64,0-2.114-9.79-7.357-13.74-7.357-3.987,0-3.698,8.546,0.3694,10.91,4.127,2.403,5.443,2.415,9.801,0.083zm-379.9,61.4c-6.6-2.1-36.9-18.2-47-25-64.6-43.4-111.5-118.1-116.3-185.1-1.701-23.89-1.976-24.35-7.823-13.16-6.018,11.52-13.95,16.8-25.59,17.05-7.141,0.1493-8.986-0.66-13.81-6.055-4.557-5.099-5.356-7.268-4.414-11.98,2.135-10.68,8.292-13.96,22.23-11.85,2.857,0.4324,4.034-0.9394,5.371-6.26,1.374-5.466,0.2004-14.22-5.935-44.29-6.882-33.73-7.67-40.33-7.879-66.01-0.3386-41.75,5.331-63.28,21.06-79.95,8.049-8.535,12.3-8.765,12.3-0.6675,0,4.297-1.595,7.503-5.623,11.31-7.703,7.27-13.95,20.27-16.55,34.44-3.749,20.43,1.14,61.09,11.28,93.79,9.427,30.41,10.89,35.49,11.11,38.59,0.1165,1.658,0.8813-0.3038,1.699-4.36,0.818-4.056,1.645-47.41,1.838-96.33l0.3509-88.96h71.79,71.79l14.74-11.9,14.74-11.9,18.37,11.88,18.37,11.88,69.59,0.4831,69.59,0.4831-0.5244,103.2c-0.5525,108.8-1.727,131.4-7.992,153.9-4.934,17.72-20.79,49.05-37.33,73.78-12.45,18.61-41.64,50.17-59.25,64.06-4.056,3.199-11.94,9.443-17.52,13.88-19.35,15.38-57.45,36.64-62.69,34.98zm19.73-14.32c41.04-22.19,82.62-58.1,111.4-96.23,15.14-20.05,26.11-39.68,35.31-63.21,10.35-26.47,12.28-35.64,13.38-63.5,1.522-38.66,2.357-197.7,1.049-199.8-0.8663-1.402-22.97-2.19-71.63-2.553-62.24-0.4647-70.65-0.8705-72.76-3.51-2.525-3.164-24.38-18.22-26.45-18.22-1.547,0-14.78,10.11-22.05,16.85l-5.55,5.142-44.23,0.2115c-24.33,0.1163-55.52-0.3828-69.32-1.109-14.29-0.7523-25.52-0.614-26.1,0.3214-0.5581,0.9031-1.223,53.49-1.478,116.9-0.5099,126.9-0.8568,122.1,11.42,160,12.46,38.55,36.94,76.76,68.22,106.5,21.1,20.05,69.06,50.6,79.45,50.6,2.144,0,10.84-3.754,19.33-8.342zm-36.6-77.9c-10.2-21-37.4-77.7-60.5-125.8-23.1-48.2-49.6-103.3-58.8-122.4-9.238-19.13-16.8-35.52-16.8-36.41,0-0.8984,22.14-1.626,49.48-1.626h49.48l1.908-4.148c5.415-11.77,30.01-39.65,39.78-45.08,2.242-1.246,10.23-2.295,17.74-2.331,12.17-0.0583,14.63,0.5548,22.49,5.596,12.24,7.855,20.36,17.4,27.32,32.13l5.942,12.58,55.98-1.226c37.42-0.8195,56.37-0.6016,57.15,0.6572,0.6402,1.036-12.73,28.21-29.71,60.39s-42.19,80.08-56.01,106.4c-64.59,123.2-84.02,159.5-85.41,159.5-0.8266,0-9.838-17.2-20.03-38.24zm26.6,17.95c2.788-5.056,4.24-9.192,3.227-9.192-2.327,0-2.395-9.37-0.1125-15.37,2.229-5.863,9.131-12.28,13.21-12.28,2.212,0,7.159-7.603,16.25-24.97,7.186-13.73,13.07-25.35,13.07-25.81,0-1.861-6.346-0.6833-9.073,1.684-5.481,4.757-33.3,23.29-34.97,23.29-0.913,0-2.112,1.177-2.664,2.617-0.9517,2.48-23.5,20.48-27.2,21.71-1.711,0.5704,20.25,47.6,22.2,47.55,0.5498-0.0184,3.281-4.163,6.069-9.219zm-2.3-26.1c0-1.201,1.709-5.714,3.798-10.03,4.998-10.32,18.33-18.89,18.33-11.77,0,0.8859-1.717,2.156-3.816,2.822-2.099,0.6661-6.687,5.7-10.2,11.19-6.486,10.14-8.112,11.7-8.112,7.792zm14.8,1.723,3.816-7.836-4.7,5.173c-2.585,2.845-4.7,6.371-4.7,7.836,0,4.492,1.6,3.01,5.585-5.173zm-26.79-31.22c13.52-12.07,24.01-19.95,26.55-19.95,1.046,0,4.628-2.359,7.959-5.241,7.851-6.795,22.13-15.04,26.04-15.04,5.975,0,2.95-3.576-4.771-5.641-9.881-2.642-12.45-4.755-12.45-10.26,0-3.899-0.8314-4.383-7.514-4.383-14.35,0-41.77-20.21-52.84-38.96-1.718-2.908-3.666-5.288-4.329-5.288-1.997,0-3.488,12.84-3.531,30.42-0.0223,9.126-0.5491,19.67-1.171,23.43-1.061,6.42-1.62,6.909-9.198,8.045-4.438,0.6654-8.068,1.522-8.068,1.903,0,0.3813,5.771,12.78,12.82,27.56,14.63,30.64,12.33,29.63,30.5,13.41zm-15.21-27.95c-4.31-1.057-7.836-2.593-7.836-3.412,0-1.738,11.26-2.007,15.52-0.3706,2.86,1.097,4.25,6.521,1.534,5.98-0.7605-0.1512-4.909-1.14-9.219-2.198zm64.69-44.08c2.475-3.296,7.092-10.97,10.26-17.05,3.168-6.084,8.652-16.32,12.19-22.74,3.535-6.424,6.428-13.68,6.428-16.13,0-3.839-0.8682-4.453-6.296-4.453h-6.296l-1.188,14.29c-1.685,20.26-1.543,19.76-5.788,20.37-4.104,0.5889-20.86-7.495-23.12-11.15-1.617-2.617,1.565-6.914,5.12-6.914,1.397,0,2.54,1.162,2.54,2.583,0,2.238,12.68,11.39,13.77,9.937,0.2222-0.2948,1.318-9.247,2.436-19.89,1.814-17.28,2.547-19.8,6.841-23.51,3.232-2.788,7.195-4.148,12.08-4.148,4,0,7.259-0.6223,7.244-1.383-0.1077-5.273-9.513-9.369-28.72-12.5-16.07-2.624-29-1.817-34.81,2.171-2,1.373-4.922,2.496-6.492,2.496-2.933,0-4.63,1.524-19.77,17.75-4.851,5.201-10.71,10.43-13.02,11.62-2.31,1.188-3.787,2.829-3.282,3.646,0.5052,0.8173,1.37,5.077,1.921,9.466,2.657,21.14,35.12,51.11,55.71,51.43,6.65,0.1032,8.377-0.7255,12.24-5.872zm-10.3-10.75c-1.775-1.034-3.227-3.025-3.227-4.425s-1.802-2.811-4.004-3.135c-2.202-0.3239-4.351-1.644-4.776-2.932-0.5856-1.778,2.616-2.256,13.27-1.981,16.42,0.4239,19.41,2.497,13.83,9.594-3.976,5.054-9.531,6.114-15.09,2.879zm12.45-5.384c0.6794-1.099-1.554-1.844-5.531-1.844-3.978,0-6.211,0.7443-5.531,1.844,0.6267,1.014,3.116,1.844,5.531,1.844s4.904-0.8297,5.531-1.844zm-30.01-52.65c-2.254-1.579-4.098-4.188-4.098-5.798,0-2.497,1.812-2.758,12.31-1.778,13.98,1.306,16.94,3.055,12.56,7.43-3.834,3.834-15.4,3.915-20.78,0.1457zm23.15-8.313c-1.748-1.019-8.621-2.361-15.27-2.982-15.57-1.455-15.4-5.474,0.1978-4.548,11.66,0.692,22.86,4.395,22.86,7.557,0,2.421-3.61,2.408-7.788-0.0277zm-75.18,60.04c0-1.721-1.741-2.766-4.609-2.766-4.476,0-5.887,1.795-3.38,4.302,2.319,2.319,7.989,1.229,7.989-1.536zm0.9219-10.14c-0.6267-1.014-3.165-1.844-5.64-1.844s-4.5,0.8297-4.5,1.844,2.538,1.844,5.64,1.844c3.291,0,5.165-0.7681,4.501-1.844zm0.9219-8.853c0-0.8131-3.033-1.564-6.741-1.669-4.598-0.1309-5.917,0.3306-4.148,1.45,3.241,2.052,10.89,2.206,10.89,0.2192zm-3.687-6.883c0-2.657-6.265-10.08-8.509-10.08-4.125,0-2.925,6.632,1.595,8.812,4.742,2.287,6.914,2.684,6.914,1.264zm7.512-14.02c-0.5825-0.6464-3.008-1.766-5.39-2.487-3.889-1.177-4.196-0.8693-3.008,3.019,0.7271,2.382,2.676,5.874,4.33,7.76,2.89,3.295,3.05,3.223,4.068-1.844,0.5826-2.901,0.5826-5.803,0-6.449zm-14.89-3.434c0-1.014-0.8786-1.844-1.953-1.844s-1.44,0.8297-0.813,1.844c0.6267,1.014,1.505,1.844,1.953,1.844,0.4472,0,0.813-0.8297,0.813-1.844zm21.2-3.687c0.6267-1.014-0.6482-1.844-2.833-1.844s-6.295-1.654-9.133-3.675c-6.111-4.351-13.12-5.525-14.23-2.385-0.453,1.274,1.443,2.734,4.406,3.393,2.861,0.6359,7.69,2.307,10.73,3.713,6.623,3.062,9.533,3.272,11.06,0.7976zm1.844-11.06c-1.835-2.028-5.49-3.714-8.122-3.746-2.631-0.0332-6.359-1.25-8.283-2.707-1.924-1.456-4.219-2.202-5.1-1.658-2.393,1.479,0.0621,4.423,3.688,4.423,1.743,0,4.59,1.659,6.326,3.687,1.923,2.245,5.439,3.687,8.992,3.687,5.718,0,5.768-0.0738,2.498-3.687zm96.3,2.41c-1.794-0.4676-4.283-0.4368-5.531,0.0682s0.2195,0.8874,3.262,0.85c3.042-0.0369,4.063-0.4508,2.27-0.9184zm-82.47-7.941c0-4.005-4.526-4.896-9.219-1.816-2.458,1.614-2.458,2.017,0,3.631,4.693,3.081,9.219,2.189,9.219-1.815zm-12.13-7.41c1.183-1.183-1.587-1.809-8.004-1.809-8.751,0-9.55,0.3166-7.386,2.925,2.566,3.091,11.86,2.418,15.39-1.115zm110.9-2.731c2.768-11.03-3.922-16.97-24.13-21.42-18.9-4.167-28.8-4.017-39.19,0.5916-9.536,4.231-9.646,4.369-6.736,8.523,4.307,6.149,10.9,4.776,10.9-2.271,0-7.434,4.24-8.233,6.671-1.257,1.092,3.134,2.735,5.698,3.65,5.698,3.414,0,4.43-1.016,4.469-4.469,0.0654-5.8,3.999-5.351,6.108,0.6977,2.264,6.494,7.15,7.476,8.013,1.611,1.07-7.273,5.178-6.106,5.441,1.546l0.2427,7.068,1.14-6.432c0.7059-3.982,2.332-6.66,4.27-7.03,2.603-0.4977,2.957,0.467,2.101,5.737-0.6074,3.743-0.1905,6.853,1.019,7.6,1.357,0.8387,2.047-0.9984,2.047-5.45,0-9.198,4.419-7.494,5.208,2.008,0.941,11.34,6.59,16,8.785,7.256zm-91.43,1.291c0-2.477-4.255-5.9-7.333-5.9-1.6,0-4.951-1.431-7.448-3.18s-6.309-2.948-8.471-2.665c-2.402,0.3147-4.42-0.7592-5.188-2.761-1.071-2.792-1.511-2.875-2.973-0.562-3.824,6.047-2.085,9.165,5.141,9.215,3.803,0.0258,10.23,1.619,14.29,3.538,8.094,3.83,11.98,4.581,11.98,2.314zm-38.6-12.78c2.126-7.593,13.92-28.64,29.73-53.04,8.447-13.04,16.83-19.67,26.19-20.73,6.084-0.6857,9.749-0.0769,13.22,2.195,4.527,2.966,4.93,2.964,7.124-0.0361,2.688-3.676,10.86-2.469,16.27,2.402,1.84,1.658,3.227,2.03,3.227,0.865,0-4.76-5.334-11.46-21.39-26.86l-17.04-16.35-4.623,9.122c-4.538,8.955-22.8,34.66-35.23,49.57-3.466,4.16-8.117,11.63-10.34,16.59-2.219,4.967-4.767,10.27-5.663,11.8-6.35,10.78-8.878,19.2-7.798,25.96,0.6356,3.975,1.771,7.227,2.524,7.227,0.7526,0,2.467-3.924,3.81-8.72zm52.96,6.416c2.368-2.864,0.7125-12.47-2.13-12.36-3.826,0.149-19.41,4.637-20.74,5.975-0.7252,0.7253,0.6944,1.319,3.155,1.319,2.476,0,5.501,1.646,6.776,3.687,2.574,4.121,10.02,4.917,12.94,1.383zm-17.13-14.67c4.056-0.9942,10.28-2.241,13.83-2.77,6.878-1.026,12.91-5.185,12.91-8.904,0-1.244,2.963-4.521,6.585-7.284,6.021-4.592,7.721-4.966,19.83-4.354,10.16,0.5129,14.64,1.662,19.23,4.93,6.733,4.794,8.428,1.893,2.757-4.72-1.775-2.07-5.301-7.27-7.836-11.56-2.535-4.287-5.947-9.243-7.581-11.01-1.635-1.771-4.51-5.824-6.39-9.006-3.201-5.42-6.31-7.574-6.31-4.374,0,0.7766,3.347,7.14,7.438,14.14,8.086,13.84,7.722,15.71-3.064,15.76-5.543,0.0271-11.05-3.745-8.779-6.015,1.635-1.635-6.866-18.37-11.19-22.03-2.069-1.752-6.458-3.204-9.754-3.227-8.042-0.0549-16.71,8.785-30.69,31.31-5.977,9.63-11.91,19.17-13.19,21.2-1.499,2.382-1.765,5.121-0.752,7.736,1.683,4.344,5.857,4.378,22.96,0.1844zm-47.02,0.2828c0-6.32,16.16-38.64,24.08-48.16,4.966-5.967,10.01-12.69,11.21-14.95,1.201-2.254,3.127-4.928,4.281-5.942,8.645-7.598,21.34-28,23.81-38.26,1.214-5.053,1.185-5.07-8.68-5.07-11.45,0-18.9,4.485-33.62,20.22-17.1,18.29-20.16,24.2-27.41,53.04-1.589,6.323-2.889,13.18-2.889,15.24,0,5.806,5.95,25.81,7.677,25.81,0.8478,0,1.541-0.872,1.541-1.938zm120.6-9.313c-3.491-3.857-13.66-9.962-13.66-8.201,0,0.508-2.194,0.0896-4.875-0.9298-5.737-2.181-15.25,0.3658-19.69,5.271-2.713,2.997-2.093,3.151,10.38,2.572,8.656-0.4016,15.83,0.3432,20.64,2.144,10.11,3.782,11.28,3.643,7.204-0.8569zm-22.88-30.23c0-1.521-0.8036-2.766-1.786-2.766-0.9822,0-1.308,1.245-0.7246,2.766,0.5837,1.521,1.387,2.766,1.786,2.766,0.3985,0,0.7246-1.245,0.7246-2.766zm-6.192-53.29c-4.261-5.587-14.11-14.01-16.38-14.01-0.4402,0,3.763,4.982,9.341,11.07,10.78,11.76,15.17,13.6,7.04,2.936zm-208.5,163.5c-0.6127-0.6127-1.048,0.4762-0.9684,2.42,0.0885,2.148,0.5254,2.585,1.114,1.114,0.5326-1.331,0.4671-2.921-0.1455-3.534zm279.2,190.4c-1.229-1.481-2.659-5.85-3.176-9.708-0.7206-5.372-0.0347-8.087,2.93-11.6,3.752-4.44,3.954-4.473,6.571-1.093,1.485,1.918,3.082,4.407,3.548,5.531,0.5681,1.369,1.435,1.205,2.626-0.4978,0.9779-1.397,2.656-1.998,3.73-1.334,1.256,0.7764,2.151-2.26,2.511-8.522,0.5433-9.455,0.7139-9.728,6.09-9.728h5.531l1.634,15.18c1.943,18.05,1.071,19.69-11.99,22.49-12.4,2.659-17.35,2.481-20.01-0.7226zm47.27-4.329c-1.848-2.042-4.304-9.228-5.459-15.97-1.758-10.26-1.67-12.52,0.5364-13.89,3.743-2.313,6.999,1.001,9.271,9.437,3.005,11.16,10.12,8.711,11.31-3.895,0.7374-7.754,6.22-9.986,8.617-3.507l1.535,4.149,1.049-4.013c1.598-6.111,8.005-5.17,10.34,1.519,1.06,3.042,2.36,5.531,2.888,5.531,0.5279,0,0.4823-1.245-0.1014-2.766s-0.4984-4.218,0.1895-5.992c1.166-3.007,1.43-2.983,3.885,0.3523,1.449,1.968,2.634,5.958,2.634,8.866s0.7878,4.801,1.751,4.206c0.9629-0.5952,1.277-5.08,0.6986-9.966-0.8646-7.301-0.4897-9.1,2.103-10.1,1.735-0.666,3.843-0.7858,4.683-0.2664,1.969,1.217,5.514,17.72,5.514,25.67,0,7.853-3.463,10.62-14.64,11.69-10.34,0.9936-14.16-1.973-17.86-13.89l-2.142-6.889-0.1933,7.55c-0.2419,9.448-4.676,13.78-15.33,14.98-6.319,0.7122-8.593,0.1438-11.27-2.82zm-282.4,0.2605c-11.62-2.531-16.57-10.75-15.36-25.5,0.5329-6.476,1.169-7.375,5.216-7.375,4.051,0,4.68,0.8931,5.193,7.375,0.6759,8.533,4.025,13.53,4.025,6.009,0-2.678,0.8297-5.382,1.844-6.009,1.076-0.6648,1.844,1.21,1.844,4.5,0,6.357,2.831,7.556,4.609,1.953,1.287-4.056,7.536-5.042,8.762-1.383,1.345,4.015-2.333,16.96-5.5,19.36-3.116,2.359-4.223,2.471-10.64,1.074zm-47.69-8.122c-4.388-3.452-4.855-5.012-4.83-16.13,0.0315-13.77,1.558-17.59,6.646-16.62,2.881,0.5492,3.56,2.619,4.018,12.26,0.3848,8.095,1.366,11.91,3.25,12.63,4.374,1.679,7.915-2.786,9.246-11.66,1.341-8.939,4.619-11.7,9.292-7.822,4.391,3.644,2.806,24.58-2.144,28.33-5.478,4.142-19.66,3.596-25.48-0.9807zm-31.97-1.825c-8.977-2.721-11.74-7.976-10.54-20.08,1.691-17.11,2.24-18.53,7.185-18.53,4.299,0,4.517,0.578,5.035,13.37,0.5175,12.77,0.7417,13.37,5.012,13.37,3.894,0,4.755-1.264,6.68-9.815,2.55-11.32,4.444-13.85,9.047-12.09,2.874,1.103,3.185,3.022,2.421,14.94-0.5472,8.527-1.894,14.69-3.578,16.37-3.527,3.527-13.82,4.719-21.26,2.462zm369.5-8.451c-1.848-1.848-1.553-11.72,0.3504-11.72,2.766,0,6.092,5.198,5.448,8.516-0.6725,3.469-3.802,5.195-5.799,3.199zm-327.6-6.997c0-6.553,2.596-10.22,4.226-5.974,1.281,3.339-0.6118,12.32-2.597,12.32-0.8958,0-1.629-2.855-1.629-6.344zm-36.87-2.57c0-5.057,1.877-9.523,4.002-9.523,2.588,0,1.012,11.57-1.697,12.46-1.328,0.4359-2.305-0.8072-2.305-2.934zm521.8-1.353c0-1.591,2.015-10.92,4.477-20.74,6.563-26.16,8.242-36.31,12.27-74.08,6.472-60.72,7.641-77.74,7.885-114.8,0.213-32.36,0.575-36.41,3.25-36.41,6.976,0,8.007,4.809,7.461,34.8-0.2887,15.84-1.3,35.86-2.247,44.48-0.9469,8.619-1.728,19.97-1.737,25.23s-1.669,16.46-3.69,24.89c-3.863,16.11-4.839,27.45-2.104,24.45,1.843-2.022,8.842-27.55,12.36-45.08,4.063-20.25,7.322-80.9,5.017-93.36-1.95-10.54-1.877-10.91,2.881-14.89,12.21-10.21,14.25-3.866,12.54,39-1.717,43.04-8.83,84.1-22.54,130.1-11.87,39.82-20.69,63.46-26.88,71.99-5.519,7.618-8.942,9.301-8.942,4.394zm-648.8-11.1c-6.882-8.748-21.27-60.11-27.59-98.47-7.53-45.73-9.663-69.92-9.102-103.2,0.5309-31.57,0.6298-32.28,4.566-32.84,2.498-0.3556,4.742,0.7693,5.918,2.967,1.122,2.096,1.969,20.76,2.078,45.74,0.2394,54.97,6.233,109.8,11.16,102,0.9138-1.442,1.271-7.599,0.7938-13.68-0.4771-6.084-1.286-22.68-1.798-36.87-0.5118-14.2-1.477-40.36-2.145-58.15-1.285-34.21-0.2609-40.49,6.6-40.49,3.92,0,4.246,3.161,7.527,72.83,2.916,61.92,3.683,73.94,6.653,104.2,4.92,50.09,5.124,56.07,2.001,58.67-2.321,1.926-3.443,1.487-6.663-2.606zm487.5-4.896c-1.128-3.513-1.464-3.654-2.194-0.9219-0.4739,1.775-2.46,3.227-4.414,3.227-3.102,0-3.552-1.366-3.552-10.78,0-12.13,2.705-16.04,12.44-17.99,4.621-0.9243,6.677-0.2214,10.48,3.582,2.602,2.602,4.764,6.221,4.804,8.042,0.0437,2.002,1.104,0.937,2.682-2.696,6.528-15.02,23.9-10.52,26.22,6.785,0.8229,6.135,0.455,7.518-2,7.518-1.75,0-3.008-1.499-3.008-3.585,0-1.972-2.024-5.912-4.498-8.758-3.726-4.285-5.071-4.817-7.836-3.096-2.537,1.579-3.319,4.343-3.26,11.52,0.0831,9.976-3.281,13.1-5.747,5.328l-1.307-4.118-1.523,4.118c-2.306,6.233-6.959,5.243-6.769-1.439,0.0868-3.057-0.4645-6.168-1.225-6.914-0.7609-0.7463-1.143,0.3026-0.8498,2.331,0.7661,5.294-1.853,11.98-4.692,11.98-1.334,0-3.026-1.867-3.759-4.148zm1.705-17.79c-1.157-1.157-4.448,3.525-4.403,6.265,0.0166,1.014,1.24,0.2448,2.718-1.709s2.237-4.004,1.685-4.556zm7.679,0.5496c-0.6562-1.71-1.608-2.694-2.115-2.187s-0.385,2.321,0.2712,4.031,1.608,2.694,2.115,2.187,0.385-2.321-0.2712-4.031zm23.5,16.29c-1.169-0.7449-2.414-4.258-2.766-7.807-0.5391-5.437-0.0594-6.453,3.048-6.453,3.02,0,3.79,1.418,4.254,7.836,0.5599,7.738-0.3819,9.072-4.536,6.425zm51.06-2.673c-11.49-7.818-13.81-12.76-13.47-28.71l0.3042-14.27-15.77-17.49c-8.674-9.62-16.51-17.76-17.41-18.1-0.9084-0.338-1.057,2.125-0.334,5.531,0.7169,3.377,1.332,8.589,1.366,11.58,0.0551,4.77-0.7794,5.643-6.765,7.077-6.167,1.478-6.613,1.983-4.609,5.217,1.79,2.888,1.696,3.906-0.4851,5.263-3.688,2.294-7.814-1.389-6.432-5.742,0.7371-2.323,0.1772-3.427-1.737-3.427-3.686,0-6.642-5.69-6.642-12.78,0-5.582,3.925-7.899,6.453-3.809,3.735,6.043,10.14-3.449,10.14-15.03,0-3.443,0.954-5.256,2.766-5.256,1.521,0,2.766,0.7845,2.766,1.743,0,0.9862,4.57,1.393,10.52,0.9361,10.41-0.7985,10.72-0.6754,28.41,11.29,17.47,11.81,18.06,12.06,24.97,10.14,10.19-2.83,17.07-2.392,25.98,1.652,5.711,2.592,7.836,4.639,7.836,7.549,0,3.339-0.8115,3.838-4.953,3.046-9.07-1.734-10.29,0.391-4.202,7.323,4.124,4.697,5.294,7.466,4.394,10.4-1.809,5.894-2.152,5.953-8.272,1.429-6.837-5.055-16.45-6.853-21.68-4.055-2.131,1.141-4.85,5.327-6.041,9.302-1.806,6.028-1.64,8.702,0.999,16.1,6.015,16.87,3.475,20.97-8.105,13.09zm-388.3-3.451c-1.9-3.074,2.373-6.6,4.917-4.056,2.128,2.127,0.796,6.061-2.052,6.061-0.8944,0-2.184-0.9021-2.865-2.004zm-101.3-3.3c-0.726-1.175,0.8327-5.389,3.464-9.365,6.503-9.826,6.33-18.43-0.5229-26.1-5.107-5.716-5.87-5.948-20.28-6.178-8.238-0.1309-15.42-0.6835-15.97-1.226-2.238-2.238,3.776-10.71,9.547-13.45,3.409-1.618,6.198-3.238,6.198-3.601s-3.319-0.2148-7.375,0.3293c-6.537,0.8767-7.375,0.5575-7.375-2.807,0-2.088,2.282-5.597,5.07-7.798,6.859-5.413,22.75-4.516,31.24,1.765l5.831,4.311,12.23-10.15c12.05-10,12.44-10.17,26.41-11.1,7.794-0.5174,14.57-0.5679,15.06-0.1125,0.49,0.4558-2.829,3.866-7.375,7.579s-13.36,11.58-19.58,17.48c-11.05,10.49-11.27,10.88-9.724,17.56,4.199,18.07,0.4823,33.11-9.858,39.89-6.056,3.968-15.37,5.597-17,2.972zm79.13-0.24c-1.9-3.074,2.373-6.6,4.917-4.056,2.128,2.127,0.796,6.061-2.052,6.061-0.8944,0-2.184-0.9021-2.865-2.004zm-17.42-3.527c0-2.777,0.9627-3.772,3.227-3.337,1.775,0.3418,3.227,1.843,3.227,3.337,0,1.493-1.452,2.995-3.227,3.336-2.264,0.4359-3.227-0.5596-3.227-3.336zm-21.51-1.046c-1.537-4.004,2.364-7.77,5.157-4.978,2.36,2.36,0.898,7.868-2.089,7.868-1.078,0-2.458-1.3-3.068-2.89zm34.41-6.358c-2.535-0.8697-9.294-2.505-15.02-3.633-7.892-1.555-10.64-2.949-11.38-5.761-1.472-5.63,2.985-6.231,19.68-2.655,18.8,4.027,27,7.388,27,11.06,0,2.158-1.923,2.824-7.836,2.714-4.31-0.0793-9.91-0.8572-12.45-1.727zm330.7-10.02c-0.5577-1.453-0.7278-4.143-0.3781-5.976,0.5542-2.906,3.236-3.453,20.9-4.256,19.92-0.9064,22.94-0.2356,23,5.116,0.043,3.576-6.585,5.296-25.39,6.585-13.94,0.9562-17.31,0.6835-18.13-1.468zm-340.9-7.21-16.59-3.977-0.4812-6.437c-0.6776-9.064,1.418-11.65,7.548-9.32,3.093,1.176,4.917,3.255,4.917,5.603,0,3.926,2.673,5.022,4.609,1.889,1.678-2.715,7.515-2.242,10.05,0.8153,1.214,1.462,4.841,2.914,8.062,3.227,5.116,0.4958,5.928,1.323,6.433,6.56,0.7042,7.304-0.559,7.388-24.55,1.64zm492.4-6.7c-0.6571-1.063-0.5412-2.97,0.2577-4.238s1.555-24.71,1.681-52.09c0.1519-33.06,1.219-57.83,3.178-73.75,1.622-13.18,3.448-28.53,4.057-34.11,2.062-18.86,2.87-22.27,4.968-20.97,1.987,1.228,0.7745,86.6-1.533,108-0.9489,8.795,1.315,12.04,3.93,5.628,1.525-3.738,4.759-70.86,4.608-95.66-0.0852-14.03,0.4072-17.03,2.949-18.01,1.678-0.6439,4.308-0.127,5.845,1.148,2.407,1.998,2.626,7.684,1.579,41.05-0.6685,21.3-1.988,44.54-2.933,51.64-0.9445,7.098-2.688,20.37-3.875,29.5-1.187,9.126-3.813,22.4-5.836,29.5-5.935,20.83-15.68,37.53-18.88,32.35zm-145.4-2.63c-0.5363-1.398-0.1092-3.407,0.9493-4.465,2.386-2.387,7.006-0.8061,7.006,2.397,0,1.304-1.312,2.875-2.916,3.49-3.901,1.497-3.921,1.491-5.039-1.422zm28.91-2.056c-0.6386-1.664-0.277-3.91,0.8035-4.99,2.809-2.809,8.132-0.2417,7.398,3.568-0.8173,4.244-6.725,5.268-8.201,1.422zm-494.7-13.9c-4.861-9.528-11.86-29.16-15.56-43.67-3.678-14.41-8.085-65.18-8.691-100.1-0.4092-23.61-0.1082-26.79,2.583-27.31,1.676-0.3227,4.749,0.3246,6.83,1.438,3.611,1.932,3.784,3.617,3.784,36.75,0,34.11,4.064,83.29,7.531,91.14,1.211,2.742,1.385,0.2469,0.5572-7.999-0.6614-6.591-1.557-15.72-1.989-20.28-0.4328-4.563-1.26-27.86-1.838-51.76-0.7843-32.44-0.4794-44.53,1.203-47.67,1.241-2.318,2.952-3.5,3.809-2.63,1.386,1.409,3.179,26.17,6.525,90.08,0.5839,11.15,1.819,31.9,2.745,46.09,2.425,37.17,2.284,43.33-0.9896,43.33-1.5,0-4.425-3.325-6.498-7.389zm122.7-2.531c-3.204-3.204-4.662-6.672-4.662-11.09,0-7.49,2.143-9.446,7.315-6.678,3.8,2.033,5.41,6.126,6.113,15.53,0.5292,7.087-3.011,7.989-8.766,2.234zm448.9-18.27c0-1.38,2.002-8.254,4.45-15.28,6.266-17.98,10.71-35.91,9.773-39.47-0.4356-1.666-0.1008-7.954,0.744-13.97,0.8449-6.019,2.389-17.58,3.431-25.69,1.042-8.112,2.307-16.82,2.811-19.36,0.5037-2.535,1.854-11.87,3.001-20.74,1.475-11.41,2.824-16.13,4.61-16.13,3.007,0,3.134,4.432,0.7387,25.81-0.9655,8.62-1.909,21.06-2.097,27.66-0.1879,6.591-1.373,19.04-2.633,27.66-2.472,16.9-2.161,20.18,1.116,11.78,3.43-8.793,6.811-31.36,9.03-60.28,2.303-30.01,2.856-32.63,6.9-32.63,5.812,0-2.447,89.8-8.893,96.7-0.9,0.9633-1.636,2.939-1.636,4.392,0,4.464-16.61,39.69-20.87,44.27-5.626,6.044-10.47,8.49-10.47,5.287zm-543-16.8c-11.14-11.8-19.55-53.2-22.11-108.9-1.187-25.83,0.2806-32.75,5.495-25.92,1.961,2.57,2.78,8.807,2.907,22.12,0.2732,28.69,1.535,56.82,2.596,57.89,0.5278,0.5279,0.873-17.81,0.767-40.75s0.3478-42.59,1.008-43.66c0.6606-1.069,2.811-1.943,4.78-1.943,3.266,0,3.583,1.41,3.628,16.13,0.0985,32.06,4.126,84.31,8.35,108.3,4.435,25.21,3.191,28.03-7.408,16.79zm469.9,1.776c-8.629-3.757-14.01-13.95-15.01-28.43-1.11-16.13,2.419-30.62,15.93-65.39,18.99-48.88,22.83-68.94,17.96-93.74-3.439-17.48-10.4-31.52-19.8-39.96-5.084-4.564-7.193-7.958-7.193-11.58,0-7.123,2.715-8.083,10.05-3.553,9.17,5.668,17.41,15.8,23.6,29.05,4.761,10.17,5.644,14.73,6.987,36.04,1.394,22.12,1.127,26.39-2.87,45.88-2.424,11.82-6.593,26.75-9.265,33.19-12.63,30.42-20.39,64.87-16.03,71.18,1.227,1.778,2.959,1.855,7.344,0.3262,10.31-3.595,18.41,4.333,16.24,15.9-2.216,11.81-14.8,16.8-27.94,11.08zm43.51-9.865c0-1.803,2.953-9.441,6.563-16.97,11.09-23.14,16.99-50.08,20.78-94.83,0.7694-9.095,2.104-14.89,3.54-15.36,1.763-0.5838,2.334,5.018,2.428,23.82,0.121,24.11,0.1748,24.42,2.786,16.29,1.464-4.563,3.182-14.93,3.816-23.05,1.152-14.73,2.826-19.36,7.006-19.36,6.905,0-2.095,59.91-13.6,90.54-4.524,12.04-12.92,25.25-22.37,35.18-7.261,7.633-10.95,8.895-10.95,3.751zm-483.3-8.164c-7.971-9.897-12.57-17.91-17.98-31.36-4.829-11.98-5.076-14-6.535-53.08-0.5866-15.72-1.474-31.64-1.971-35.38-0.9509-7.152,0.5078-9.576,4.338-7.208,1.446,0.8937,2.989,9.873,4.177,24.31,2.973,36.12,3.729,42.63,4.823,41.54,1.505-1.505,0.5889-33.32-1.361-47.27-0.9251-6.619-1.191-13.91-0.5903-16.21,2.529-9.67,5.437-1.3,9.222,26.54,2.195,16.14,4.946,33.09,6.114,37.65,1.168,4.563,2.439,15.44,2.825,24.18,0.3861,8.735,2.012,21.53,3.614,28.44,1.65,7.116,2.217,13.25,1.308,14.16-0.9088,0.9088-4.366-1.826-7.98-6.313zm466-25c-0.5054-0.8177,2.238-9.331,6.096-18.92,8.264-20.53,12.77-39.12,14.3-58.97,1.331-17.26,2.354-19.5,7.608-16.69,4.545,2.433,4.056,8.159-2.537,29.69-2.329,7.605-4.663,16.32-5.187,19.36-0.5236,3.042-1.519,8.642-2.211,12.45-1.651,9.065,0.0529,8.75,4.998-0.9219,6.297-12.32,9.326-24.85,10.58-43.79,0.9157-13.82,1.743-17.52,3.926-17.52,2.263,0,2.718,2.865,2.505,15.77-0.4782,28.94-11.65,58.95-27.33,73.39-8.273,7.626-11.02,8.951-12.75,6.149zm-445.9-5.427c-6.08-6.481-13.19-20.94-16.07-32.66-1.951-7.958-9.225-58.68-9.329-65.06-0.0656-4.015,5.516-2.487,7.212,1.974,0.8948,2.354,2.232,12.93,2.971,23.51,0.7394,10.58,2.028,20.89,2.863,22.92,1.422,3.454,1.06-9.243-1.143-39.99-0.5187-7.242-0.1211-12.81,0.9629-13.48,1.015-0.6276,1.863-0.0551,1.883,1.272,0.0205,1.327,0.8572,7.806,1.859,14.4,1.002,6.591,3.016,20.7,4.475,31.34,1.459,10.65,4.769,27.24,7.355,36.87,6.76,25.18,6.188,28.74-3.043,18.9zm447.3-36.87c0.6743-4.817,1.644-14.57,2.154-21.66,1.311-18.23,2.53-24.89,4.558-24.89,0.9681,0,1.881,5.185,2.028,11.52l0.2674,11.52,1.832-13.37c1.008-7.352,2.547-13.37,3.42-13.37,2.576,0,1.817,21.31-1.236,34.74-4.799,21.1-15.61,33.97-13.02,15.5zm-440.3,0.9219c-3.565-5.564-6.342-16.58-9.528-37.8-3.417-22.76-3.44-31.8-0.0807-31.8,3.327,0,4.807,4.053,4.807,13.17,0,4.033,0.6934,6.904,1.541,6.381,0.8476-0.5238,1.16-5.551,0.6936-11.17-0.784-9.454-0.5544-10.22,3.068-10.22,4.297,0,4.011-1.775,4.608,28.58,0.1794,9.126,1.038,23.44,1.907,31.8,1.394,13.41,1.229,15.21-1.389,15.21-1.633,0-4.165-1.867-5.627-4.148zm-1.244-41.48c-0.0986-5.266-0.47-6.042-1.558-3.256-1.317,3.373-0.6616,10.17,0.981,10.17,0.3888,0,0.6485-3.111,0.5772-6.914zm37.23,33.16c-1.076-2.01-2.5-7.059-3.165-11.22-1.128-7.054-0.8626-7.696,3.929-9.518,6.916-2.629,8.037-0.7876,6.496,10.67-1.553,11.55-4.374,15.46-7.259,10.06zm370.1,0.3317c-1.204-6.206,0.6853-19.2,2.788-19.17,5.86,0.078,6.679,2.85,3.397,11.5-3.867,10.19-5.342,12.02-6.185,7.673zm0.4185-32.32c0.1659-4.446-0.3024-12.26-1.041-17.36-1.462-10.11,1.569-15.33,7.563-13.03,2.453,0.9414,2.866,3.29,2.258,12.84-0.6157,9.669-0.2543,11.66,2.091,11.5,3.138-0.2114,4.619,5.897,2.295,9.461-0.8168,1.252-4.181,2.816-7.476,3.475l-5.991,1.198,0.3017-8.084zm-368.8-8.833c-1.065-1.99-1.936-6.21-1.936-9.379,0-3.371-0.7648-5.289-1.844-4.622-1.014,0.6267-1.844,4.409-1.844,8.406,0,5.23-0.7751,7.266-2.766,7.266-2.191,0-2.766-2.641-2.766-12.7v-12.7l6.454-0.7535c3.55-0.4144,7.283,0.0756,8.297,1.089,2.346,2.346,2.424,24.5,0.0911,25.94-0.9632,0.5953-2.623-0.5457-3.687-2.536zm380.5-4.571c-0.5392-1.405-0.7206-6.176-0.4031-10.6,0.4827-6.729,1.256-8.143,4.726-8.636,3.728-0.5295,4.148,0.1831,4.148,7.035,0,11.35-5.667,19.51-8.471,12.2zm150,0.5632c-6.917-4.029-8.59-11.09-7.645-32.28,1.246-27.93,2.09-32.47,5.906-31.74,2.681,0.5116,3.278,4.102,4.235,25.47,0.6124,13.68,1.235,25.08,1.383,25.33,0.1482,0.2535,1.9,0.4609,3.892,0.4609,5.931,0,7.44-5.943,7.44-29.31,0-20.14,0.3329-22.36,3.61-24.11,2.9-1.552,3.988-1.226,5.531,1.658,2.522,4.712,2.466,34.3-0.0868,46.2-3.509,16.36-14.01,24.3-24.27,18.33zm-709.3-9c-2.002-2.002-4.191-5.833-4.863-8.512-1.099-4.377-0.1876-30.24,1.748-49.61,3.515-35.19,4.058-37.06,10.21-35.1,4.79,1.52,4.921,5.25,1.173,33.26-4.223,31.55-3.477,50.7,1.973,50.7,4.6,0,6.16-6.748,8.971-38.81,1.539-17.56,3.504-32.63,4.366-33.49,0.8621-0.862,3.048-0.9993,4.857-0.305,3.307,1.269,3.329,9.21,0.118,41.26-0.3556,3.549-1.213,12.22-1.905,19.27-1.369,13.93-3.575,21.36-6.993,23.53-4.41,2.804-15.95,1.517-19.66-2.192zm676.4-2.4c-3.399-5.377-3.67-7.849-2.646-24.09,2.019-32.02,8.331-37.25,8.331-6.906,0,13.75,0.6573,18.65,2.735,20.37,4.166,3.457,6.484-4.736,6.484-22.92,0-11.56,0.6986-15.91,2.844-17.69,1.691-1.403,3.493-1.682,4.446-0.6867,2.143,2.238-2.307,48.45-5.177,53.76-3.556,6.579-12.29,5.632-17.02-1.844zm-641.7,0.6116c-3.929-3.193-4.318-4.852-3.998-17.05,0.482-18.38,4.288-51.5,6.373-55.46,2.796-5.308,7.135-4.018,6.202,1.844-0.444,2.789-1.74,15.03-2.879,27.2-1.14,12.17-2.368,24.04-2.73,26.37-0.7449,4.809,3.726,7.571,6.983,4.314,1.139-1.139,2.678-7.756,3.42-14.7,3.136-29.35,5.734-42.71,8.302-42.71,3.296,0,3.265,10.57-0.1139,38.97-2.592,21.79-5.861,31.57-11.24,33.63-4.475,1.717-5.571,1.463-10.31-2.391zm618-3.215c-3.252-4.134-3.819-7.228-3.594-19.61,0.3231-17.78,1.838-24.14,5.936-24.93,2.706-0.5214,3.094,1.431,3.094,15.58,0,19.67,3.085,18.95,4.543-1.071,0.9942-13.64,2.863-17.26,7.921-15.32,2.683,1.03,2.555,7.098-0.7242,34.33-1.089,9.043-5.709,15.93-10.68,15.93-1.447,0-4.369-2.209-6.493-4.908zm-21.17-1.677c-5.055-5.055-3.34-41.35,1.953-41.35,1.875,0,2.524,3.053,2.524,11.88,0,16.3,3.161,17.01,4.732,1.068,0.9492-9.633,1.974-12.94,4.008-12.94,2.297,0,2.592,3.084,1.85,19.34-0.5271,11.55-1.814,20.46-3.197,22.12-2.992,3.605-8.205,3.557-11.87-0.109zm-570.8-1.8c-1.78-2.145-2.056-8.514-1.138-26.27,1.279-24.75,3.11-35.1,5.935-33.58,1.852,0.9976,1.853,1.189,0.09421,23.05-0.7263,9.029-0.5387,13.76,0.4837,12.19,0.9186-1.41,2.242-8.664,2.941-16.12,1.364-14.56,4.518-20.17,4.843-8.62l0.1975,7.023,1.755-7.836c1.699-7.586,5.676-10.44,7.592-5.445,1.356,3.534-3.764,47.39-6.227,53.34-1.702,4.109-3.298,5.115-8.122,5.115-3.302,0-7.061-1.274-8.354-2.832zm10.53-16.6c0.1818-2.964-0.0979-3.877-0.6216-2.03-0.9213,3.25-1.035,3.25-3.499,0-2.377-3.136-2.55-3.043-2.605,1.404-0.1114,9.052,6.172,9.637,6.725,0.626zm2.751-17.37c0.3868-4.056,0.05918-7.375-0.7282-7.375-0.7873,0-1.432,3.319-1.432,7.375s0.3277,7.375,0.7282,7.375,1.045-3.319,1.432-7.375zm537.4,31.66c-2.304-2.546-3.051-6.985-3.051-18.13,0-15.55,0.6071-17.58,4.79-15.97,1.776,0.6814,2.585,4.106,2.585,10.94,0,5.469,0.8297,9.943,1.844,9.943,1.024,0,1.844-4.917,1.844-11.06,0-8.604,0.6146-11.06,2.766-11.06,2.241,0,2.766,2.97,2.766,15.67,0,13.21-0.5784,16.25-3.687,19.36-4.548,4.548-5.983,4.594-9.855,0.3158zm-524-3.047c-5.072-5.072-5.192-6.279-2.591-26.17,2.546-19.48,3.369-22.72,5.762-22.72,1.455,0,1.663,5.902,0.7205,20.45-1.244,19.2-1.119,20.41,2.046,19.8,1.854-0.3571,3.668-2.19,4.031-4.073,0.4113-2.136-0.1058-2.951-1.375-2.167-3.369,2.082-4.044-3.041-2.157-16.37,2.779-19.62,6.376-20.35,5.152-1.044-0.9782,15.44-0.5249,14.49,3.309-6.914,0.6309-3.522,2.179-5.992,3.755-5.992,2.031,0,2.749,2.796,2.958,11.52,0.1519,6.338,0.5869,9.034,0.9665,5.992,2.414-19.35,6.697-18.28,7.976,1.989,0.716,11.34,1.54,14.6,3.687,14.6,2.084,0,3.163-3.541,4.377-14.37,1.039-9.266,2.348-14.11,3.687-13.66,2.596,0.8856,1.608,32.48-1.121,35.86-5.663,7.006-18.01-0.8931-18.01-11.52,0-3.549-0.8297-6.453-1.844-6.453s-1.848,1.867-1.854,4.148c-0.0247,9.989-3.674,17.61-9.382,19.6-4.929,1.718-6.176,1.408-10.1-2.516zm504.8,2.362c-3.126-3.126-3.041-29.71,0.0922-28.68,1.268,0.4168,2.56,4.22,2.872,8.45,0.7941,10.77,4.042,9.636,4.042-1.417,0-8.543,2.328-13.15,5.193-10.28,2.291,2.299,1.244,24.39-1.388,29.31-2.758,5.154-7.199,6.228-10.81,2.616zm124.3,0.7039c-1.472-2.381-1.254-35.3,0.2503-37.87,2.239-3.823,4.087,4.586,3.994,18.17-0.1064,15.5-1.847,23.57-4.244,19.69zm-167.7-3.562c-0.4623-0.7605-1.134-7.191-1.492-14.29-0.5961-11.82-0.3454-12.91,2.967-12.91,2.501,0,4.149,1.851,5.337,5.992,2.288,7.977,4.518,7.583,5.222-0.9219,0.4547-5.494,1.33-6.914,4.26-6.914,3.271,0,3.749,1.411,4.234,12.5l0.5465,12.5-6.479,2.707c-7.048,2.945-13.27,3.509-14.6,1.324zm-538.9-25.4c1.349-25.04,4.582-45.21,7.249-45.21,1.708,0,0.7295,24.61-1.38,34.7-0.492,2.353-1.416,9.82-2.053,16.59-0.637,6.774-2.024,13.15-3.082,14.16-1.334,1.279-1.559-4.925-0.7343-20.24zm126.9,19.6c-2.626-1.666-3.071-5.306-2.571-21.02,0.4475-14.05,4.025-13.73,4.025,0.3521,0,6.024,0.7041,11.39,1.565,11.92,0.8605,0.5318,2.579-3.568,3.82-9.11,1.24-5.542,3.025-10.08,3.967-10.08,0.9413,0,1.712,4.793,1.712,10.65,0,14.62-5.261,21.89-12.52,17.28zm547.4-9.037c0.3117-17.98,3.111-21.87,3.32-4.609,0.1092,9.034-0.5649,15.21-1.66,15.21-1.037,0-1.763-4.64-1.66-10.6zm-642.1,5.727c-0.3672-1.882,0.33-10.47,1.549-19.09,1.219-8.619,2.272-19.2,2.339-23.51,0.0667-4.31,0.9512-7.836,1.965-7.836,2.346,0,2.315,3.154-0.2886,29.29-2.042,20.5-4.137,28.46-5.565,21.14zm126.9-0.0422c-4.305-4.305,2.692-9.334,9.833-7.068,4.406,1.398,4.858,5.609,0.7711,7.178-3.851,1.478-9.071,1.424-10.6-0.1101zm-49.14-17.67c-0.0166-7.086,0.7657-12.45,1.816-12.45,2.362,0,2.362,18.47,0,22.12-1.252,1.937-1.796-0.9638-1.816-9.68zm52.06,6.615c-5.015-2.024-2.304-6.154,4.04-6.154,7.52,0,9.968,2.722,4.891,5.439-3.865,2.068-5.293,2.183-8.931,0.7152zm418.9-19.89c-1.628-2.485-2.685-5.943-2.347-7.683,0.8806-4.541,5.223-5.442,5.223-1.084,0,3.876,4.215,8.456,6.072,6.599,0.618-0.618,0.6692-3.395,0.114-6.172-1.368-6.842,4.021-9.237,5.704-2.534,3.175,12.65-8.14,20.99-14.77,10.87zm-413.3,0.1676c-5.432-2.69-5.177-4.68,1.434-11.17l5.48-5.378v9.526c0,10.02-0.2829,10.3-6.914,7.019zm434.9-0.4805c-3.525-2.469-4.156-4.325-3.637-10.69l0.6289-7.702-8.297,0.0883c-6.979,0.0743-8.297-0.4732-8.297-3.447,0-2.716,2.776-4.45,11.98-7.488,17.1-5.64,25.2-10.25,40.59-23.11,7.459-6.232,18.59-13.85,24.74-16.92,15.81-7.903,23.17-13.83,23.17-18.68,0-6.502-10.42-17.86-16.27-17.73-4.528,0.0994-4.651,0.29-1.491,2.305,13.08,8.336,13.93,13.32,1.164,6.806-9.641-4.918-11.73-3.687-2.736,1.617,7.827,4.618,7.155,8.308-0.9952,5.467-3.022-1.053-5.956-2.663-6.521-3.577-0.565-0.9142-2.43-1.64-4.145-1.613-2.199,0.035-1.216,1.651,3.335,5.482,7.017,5.907,4.992,7.254-3.95,2.63-7.647-3.954-9.12-1.628-2.431,3.839,5.834,4.767,4.034,5.966-3.681,2.451-6.656-3.032-7.944-0.5447-2.698,5.211,3.95,4.335,4.039,4.73,0.7755,3.443-6.248-2.464-11.98-3.326-11.98-1.801,0,0.7989,1.452,3.094,3.227,5.1,3.144,3.554,3.09,3.615-2.077,2.356-4.469-1.088-5.118-0.8072-4.122,1.788,0.9599,2.501,0.2927,2.909-3.555,2.174-3.943-0.7538-4.686-0.2502-4.432,3.007,0.5005,6.418,0.0321,7.241-2.788,4.901-3.292-2.732-6.754-0.9422-5.334,2.758,0.7106,1.852-0.1882,2.707-2.846,2.707-2.137,0-3.885,0.8297-3.885,1.844s-1.659,1.844-3.687,1.844c-2.47,0-3.687,1.229-3.687,3.723,0,3.05-0.8327,3.514-4.609,2.566-3.486-0.8748-4.609-0.4339-4.609,1.809,0,1.736-1.528,2.965-3.687,2.965-2.028,0-3.687,0.8297-3.687,1.844s-1.197,1.844-2.661,1.844c-3.096,0-8.689-7.261-7.311-9.491,0.5151-0.8335,6.902-4.999,14.19-9.257,22.99-13.43,38.18-31.21,38.18-44.68,0-5.813-7.423-14-12.69-14-3.871,0-9.434,4.534-9.434,7.689,0,1.042,2.489,4.219,5.531,7.061s5.531,6.351,5.531,7.799c0,4.391-10.89,19.39-19.72,27.16-4.575,4.027-12.9,9.037-18.5,11.13-9.348,3.498-10.54,3.575-14.56,0.9409-6.566-4.302-5.362-7.213,4.899-11.85,11.41-5.155,27.6-20.46,27.6-26.09,0-2.231-2.074-5.979-4.609-8.328-3.624-3.358-4.609-6.077-4.609-12.71,0-6.395-0.7825-8.708-3.227-9.536-11.27-3.816-22.58-10.08-24.42-13.53-5.47-10.22-0.4963-29.61,12.17-47.42,3.408-4.793,5.59-9.256,4.849-9.918-1.216-1.087-13.91-3.082-58.5-9.196-30.16-4.135-45.32-5.364-88.5-7.176-24.34-1.021-55.04-2.32-68.22-2.887-34.08-1.465-130.3,3.482-162.2,8.341-6.084,0.9254-20.9,3.135-32.93,4.911-12.19,1.801-22.23,4.183-22.69,5.386-0.4553,1.187,3.313,7.628,8.374,14.32,6.66,8.798,9.555,14.51,10.48,20.67,1.655,11.04-0.891,15.69-14.2,25.93-8.392,6.458-10.26,8.832-9.432,12,0.7786,2.978-0.8436,5.675-6.62,11.01-8.707,8.04-9.171,10.46-3.831,19.96,4.391,7.813,13.91,14.07,32.2,21.16,7.064,2.74,14.39,5.598,16.28,6.351,3.202,1.278,3.096,1.772-1.582,7.33-8.083,9.607-10.32,10.11-23.51,5.323-20.72-7.521-48.99-29.68-55.45-43.46-1.791-3.822-1.396-4.895,3.141-8.512,7.558-6.026,5.967-10.93-3.776-11.64-6.232-0.4551-8.191,0.2179-10.59,3.637-3.905,5.575-3.705,8.142,1.485,19.05,6.021,12.65,14.78,20.91,36.25,34.18,19.36,11.97,21.62,13.97,18.87,16.72-2.448,2.448-14-2.003-28.96-11.16-18.88-11.56-62.91-33.38-76.6-37.96-15.41-5.161-19.55-10.81-13.73-18.74,2.08-2.835,7.871-7.918,12.87-11.29,4.997-3.377,9.326-6.794,9.62-7.593,0.6096-1.661-21.11-7.47-27.93-7.47-4.383,0-4.488,0.3147-3.551,10.65,0.9624,10.61,0.9387,10.67-6.756,17.63-4.247,3.837-8.701,6.652-9.898,6.256-1.264-0.4184-2.802-7.079-3.667-15.89-1.841-18.73,0.7784-24.46,14.4-31.47,9.96-5.127,12.34-5.257,66.37-3.625l25.81,0.7794,10.95-5.669c6.025-3.118,11.28-6.644,11.68-7.836,1.298-3.895-21.28-2.401-51.05,3.378-51.79,10.05-59.78,7.506-63.68-20.3-0.6502-4.645-3.812-12.35-7.183-17.52-11.33-17.35-12.5-24.89-5.536-35.66,7.141-11.03,57.92-23.93,152.8-38.79,83.15-13.03,208.6-18.29,306.1-12.84,59.41,3.32,159.6,20.11,217.6,36.48,35.23,9.943,50.56,15.87,55.77,21.58,7.346,8.041,4.638,22.94-6.795,37.37-3.006,3.795-5.837,8.907-6.291,11.36-3.438,18.55-3.166,18.02-11.19,21.9-9.74,4.715-10.1,4.707-37.94-0.8722-23.36-4.68-63.32-7.996-69.2-5.743-3.042,1.167-3.044,1.417-0.0264,4.75,7.503,8.291,14.16,9.601,48.25,9.492,17.74-0.0568,32.86-0.4768,33.6-0.9333,0.7386-0.4565,9.876-0.0889,20.31,0.8171,14.06,1.221,20.61,2.666,25.34,5.586,7.603,4.699,14.34,16.75,12.62,22.57-2.37,8.02-10.2,23.4-11.9,23.4-3.856,0-8.068-10.01-8.427-20.02-0.2051-5.719-0.4645-11.02-0.5765-11.78-0.2596-1.764-22.12-1.568-26.72,0.2393-2.987,1.173-2.088,2.452,6.453,9.18,13.21,10.41,25.6,25.34,25.6,30.86,0,6.569-5.756,11.14-15.89,12.63-10.03,1.468-25.96,9.064-52.25,24.92-9.676,5.836-20.97,12.33-25.09,14.42l-7.502,3.812,0.7919,10.95c0.7122,9.846,0.3589,11.25-3.51,13.96-5.287,3.703-5.362,3.704-10.61,0.0251zm7.512-15.58c0.5884-5.99,0.27-6.508-3.554-5.777-4.106,0.7849-6.007,4.06-2.356,4.06,1.014,0,1.844,1.936,1.844,4.302s0.605,4.907,1.344,5.646c1.558,1.558,1.846,0.6886,2.722-8.232zm114.9-89.62c3.405-7.176,2.214-12.05-3.202-13.12-3.113-0.6138-5.554,9.58-3.853,16.08,1.45,5.544,3.409,4.721,7.055-2.962zm-722.1-0.5c2.435-4.55,2.443-13.23,0.0184-19.6-1.832-4.819-2.003-4.871-5.531-1.678-3.753,3.396-4.492,9.067-2.488,19.09,1.299,6.494,5.137,7.547,8.001,2.195zm597-16.7c11.26-4.281,37.62-5.026,57.2-1.617,9.987,1.739,14.07,1.555,25.57-1.153,13.04-3.07,30.23-2.891,38.82,0.4044,6.125,2.35,1.075-4.184-6.008-7.774-6.812-3.453-10.49-3.662-57.86-3.294-55.82,0.4342-60.26-0.2917-70.71-11.56-4.33-4.67-5.285-4.961-9.685-2.956-8.251,3.759-17.43,11.63-17.43,14.95,0,6.409,15.62,16.47,25.81,16.62,2.535,0.0391,8.974-1.588,14.31-3.615zm-528.7-2c8.884-1.474,17.74-1.396,34.25,0.3035l22.27,2.292,9.445-5.141c5.195-2.827,11.35-7.176,13.69-9.665l4.243-4.524-4.179-3.39c-2.298-1.864-7.865-4.798-12.37-6.519l-8.193-3.129-8.549,5.663c-4.702,3.115-14.01,7.482-20.69,9.704-11.29,3.757-13.91,3.929-37.16,2.44-38.98-2.496-59.05-1.437-56.32,2.972,0.6083,0.9843,4.115,1.79,7.793,1.79,7.761,0,30.07,5.183,32.64,7.583,2.3,2.148,8.513,2.046,23.14-0.3805zm539.1-35.7c18.71,0.1014,30.03,1.302,50.2,5.329,24.43,4.876,35.73,5.227,35.73,1.11,0-3.741-71.28-23.5-99.56-27.6-10.28-1.49-12.64-1.277-16.59,1.497-5.863,4.113-17.91,21.63-19.5,28.36l-1.215,5.136,13.39-6.98,13.39-6.98,24.16,0.1309zm-464.2-5.158c-3.551-5.347-8.96-12.12-12.02-15.05-5.558-5.322-5.578-5.325-17.18-3.074-42.86,8.32-97.02,25.01-93.28,28.75,2.47,2.47,25.18,0.7066,47.56-3.693,36.04-7.085,47.13-6.911,65.45,1.027,17.38,7.531,18.91,6.248,9.47-7.964zm-119.1,1.494c14.63-7.73,50.06-17.18,96.74-25.8,49.17-9.083,76.61-12.35,149.3-17.76,49.76-3.703,175.4-0.1746,229.5,6.445,56.22,6.877,124.2,20.21,169.5,33.22,15.64,4.497,29.01,7.818,29.72,7.38,0.7091-0.4382,1.827-3.487,2.485-6.776,0.6576-3.288,4.706-11.79,8.996-18.89,9.417-15.59,10.64-26.71,3.555-32.44-11.68-9.456-105.5-32.76-170.9-42.47-74.2-11.01-103.3-13.11-181.6-13.14-98.25-0.0378-189.8,7.964-270.1,23.6-8.112,1.58-18.56,3.571-23.23,4.423-21.87,4-53.33,11.76-62.34,15.37-13.23,5.311-17.58,11.2-15.85,21.45,0.7587,4.491,3.554,10.3,6.658,13.83,6.727,7.661,10.87,17.44,10.87,25.66,0,6.911,1.51,12.19,3.484,12.19,0.6852,0,6.612-2.835,13.17-6.299zm634.2-16.7c-6.591-2.465-14.32-4.496-17.18-4.513-4.054-0.024-4.997-0.7391-4.295-3.257,0.4949-1.775,1.436-5.093,2.092-7.375,1.662-5.784,7.581-5.268,10.55,0.9182,4.119,8.594,27.72,16.48,34.65,11.57,2.381-1.688,2.187-2.446-1.393-5.453-2.287-1.921-10.14-5.778-17.45-8.572-20.54-7.85-27.27-17.32-17.05-24.02,6.147-4.028,24.67-2.666,35.6,2.619,4.357,2.105,9.109,3.371,10.56,2.814,5.946-2.282,7.944,0.5725,5.937,8.479-2.284,8.997-7.384,10.12-11.03,2.426-3.137-6.612-16.96-13.66-25.45-12.97-11.44,0.9268-7.853,5.482,9.845,12.5,15.9,6.303,25.19,13.48,25.19,19.47,0,10.57-19.68,13.18-40.56,5.363zm-638-2.9c-19.49-5.884-20.88-23.38-2.699-34.04,11.16-6.542,30.34-11.85,42.82-11.85,5.984,0,11.59-1.181,14.42-3.04,5.652-3.704,7.358-2.183,9.019,8.037,1.167,7.179,0.9205,7.849-3.271,8.901-3.41,0.8559-5.769-0.099-9.526-3.856-4.607-4.607-5.844-4.917-15.95-4-13.37,1.212-27.55,7.901-30.66,14.46-3.085,6.506,0.1933,16.01,6.325,18.35,15.27,5.807,46.67-3.049,46.67-13.16,0-2.57,1.283-3.562,4.609-3.562,6.871,0,5.893,6.048-2.034,12.58-11.4,9.398-44.87,15.66-59.73,11.18zm584-10.5c-9.197-1.853-14.29-3.75-14.29-5.325,0-1.346,1.659-2.446,3.687-2.446s3.675-0.6222,3.659-1.383c-0.0822-4.03-4.255-6.197-17.02-8.836-11.68-2.416-14.84-2.509-18.35-0.5382l-4.243,2.379,4.148,0.6297c4.359,0.6617,4.975,1.822,2.737,5.158-0.967,1.442-5.705,1.178-16.56-0.9219-12.31-2.38-15.21-3.573-15.21-6.251-0.002-2.769,1.027-3.117,6.297-2.128,5.858,1.099,7.765,0.006,27.2-15.59,18.6-14.93,21.5-16.65,26.43-15.63,3.042,0.6278,6.088,1.467,6.768,1.865,0.6801,0.3979,4.317,10.05,8.083,21.45,7.606,23.02,8.892,25.33,14.11,25.33,4.077,0,3.589,4.462-0.5322,4.864-1.437,0.1401-9.043-1.041-16.9-2.624zm-13.43-28.51c-2.306-10.8-3.161-11.15-11.5-4.742-4.234,3.254-7.347,6.267-6.918,6.695,1.017,1.017,12,3.608,16.32,3.85,2.858,0.1598,3.178-0.7262,2.093-5.803zm-475.3,21.41c-2.505-2.504-1.22-4.081,4.317-5.297,4.039-0.8871,5.372-2.086,4.772-4.295-0.4573-1.685-1.844-8.746-3.081-15.69-2.216-12.44-2.326-12.61-7.371-11.6-3.495,0.6991-5.446,0.1774-6.145-1.643-0.6605-1.721,0.4249-2.975,3.06-3.534,20.26-4.297,33.3-6.37,34.69-5.512,3.218,1.989,1.602,4.048-4.068,5.182-3.534,0.7068-5.394,2.032-4.852,3.457,0.4834,1.271,1.948,8.311,3.255,15.65,2.352,13.2,2.431,13.33,7.878,12.91,3.026-0.2358,5.809,0.4288,6.184,1.477,0.3872,1.082-6.701,3.387-16.39,5.332-9.391,1.885-17.95,3.75-19.02,4.144-1.067,0.3945-2.519,0.1383-3.227-0.5693zm378.5-10.93c-7.605-1.33-14.04-2.47-14.29-2.533-0.2535-0.0636-0.4609-1.398-0.4609-2.965,0-2.234,1.335-2.599,6.188-1.688l6.188,1.161,3.953-15.76c2.174-8.668,3.953-16.21,3.953-16.75,0-0.5437-2.025-0.9886-4.501-0.9886-4.643,0-7.49-2.538-5.841-5.206,1.34-2.168,38.53,5.885,39.41,8.535,0.4736,1.421-1.499,2.203-5.559,2.203h-6.293l-3.08,14.33c-3.857,17.95-3.942,17.01,1.53,17.01,2.868,0,4.609,1.045,4.609,2.766,0,3.35-6.142,3.323-25.81-0.1163zm-319-1.34c0-1.783,1.919-3.134,4.959-3.492,4.889-0.5751,4.95-0.7531,4.337-12.57-0.3422-6.591-0.6774-13.44-0.745-15.21-0.0865-2.271-1.643-3.227-5.259-3.227-3.105,0-5.136-0.9931-5.136-2.511,0-2.834,9.174-4.017,46.5-5.997l23.45-1.244,1.899,4.996c1.045,2.748,1.899,6.186,1.899,7.641,0,3.568-8.519,3.441-9.896-0.1477-1.843-4.802-10.5-6.777-23.85-5.442l-12.55,1.255,0.563,5.795c0.5276,5.43,0.9697,5.755,7.016,5.157,3.549-0.3505,7.117-1.802,7.927-3.227,0.8109-1.424,3.507-2.589,5.992-2.589,3.528,0,4.568,1.01,4.748,4.609,0.1268,2.535,0.3342,6.061,0.4609,7.836,0.3073,4.302-8.051,5.56-10.3,1.55-1.006-1.797-4.104-2.932-8.002-2.932-6.229,0-6.361,0.1586-6.361,7.641v7.641l13.37-1.014c15.7-1.191,22.35-3.802,25.11-9.862,1.35-2.962,3.542-4.406,6.691-4.406,4.178,0,4.551,0.5476,3.457,5.07-3.22,13.3-2.096,12.69-25.89,14.06-12,0.6878-28.25,1.763-36.1,2.388-12.26,0.9766-14.29,0.7258-14.29-1.77zm231.9-5.039c-12.63-1.984-20.04-5.552-25.24-12.15-5.102-6.486-4.858-12.14,0.8135-18.88,8.341-9.913,26.72-13.38,60.79-11.47,5.07,0.2844,10.88,0.2243,12.91-0.1337,3.202-0.5652,3.761,0.5025,4.249,8.107,0.5307,8.27,0.3045,8.758-4.065,8.758-2.545,0-6.643-2.017-9.108-4.481-8.593-8.593-25.7-10.13-41.31-3.705-6.987,2.875-10.65,9.599-8.946,16.4,3.633,14.47,42.21,18.57,52.44,5.566,3.58-4.551,11.36-6.331,11.36-2.6,0,11.58-26.8,18.84-53.88,14.59zm-136-1.802c0-1.014,2.074-1.844,4.609-1.844,4.575,0,4.609-0.123,4.609-16.59s-0.0341-16.59-4.609-16.59c-2.868,0-4.609-1.045-4.609-2.766,0-2.205,2.71-2.764,13.37-2.755l13.37,0.009,21.74,13.82c11.96,7.6,22.12,13.82,22.59,13.82,0.4667,0,0.8486-4.978,0.8486-11.06,0-11.06,0-11.06-5.531-11.06-3.687,0-5.531-0.9219-5.531-2.766,0-2.241,2.97-2.766,15.67-2.766s15.67,0.5242,15.67,2.766c0,1.844-1.844,2.766-5.531,2.766h-5.531v18.44,18.44h-5.486c-3.596,0-11.7-3.999-23.51-11.6-9.912-6.381-21.13-13.5-24.94-15.82l-6.914-4.22v13.98c0,13.68,0.0981,13.98,4.609,13.98,2.535,0,4.609,0.8297,4.609,1.844,0,1.076-6.146,1.844-14.75,1.844s-14.75-0.7682-14.75-1.844zm262.9,216.5c-1.841-4.797-1.266-17.06,0.8611-18.37,2.403-1.485,10.31,5.604,13.86,12.42,2.882,5.54,1.062,7.95-4.639,6.141-1.934-0.6137-4.049-0.2524-4.702,0.8029-1.725,2.79-4.095,2.351-5.38-0.9977zm84.81-1.844c-2.153-5.611-1.271-19.57,1.186-18.76,1.268,0.4161,2.565,3.389,2.882,6.607,0.3178,3.218,1.418,5.85,2.446,5.85,1.027,0,1.62-2.885,1.316-6.411-0.6462-7.5,3.047-12.76,5.85-8.324,2.329,3.684,2.261,15.95-0.1134,20.39-2.365,4.42-11.94,4.879-13.57,0.6499zm22.39-0.9188c-2.589-1.508-3.227-4.442-3.227-14.85,0-9.549,0.6076-12.77,2.305-12.21,1.268,0.4167,2.72,4.842,3.227,9.833,1.309,12.89,4.443,11.24,5.531-2.909,0.6851-8.906,1.619-11.98,3.636-11.98,3.768,0,6.031,14.53,3.645,23.4-2.491,9.251-8.378,12.65-15.12,8.722zm22.51-5.457c-3.279-3.279-3.692-5.7-3.227-18.88,0.4324-12.23,1.107-15.23,3.538-15.69,2.353-0.4494,3.351,1.71,4.609,9.973,2.765,18.16,7.998,12.81,8.1-8.288,0.045-9.342,5.558-19.35,8.256-14.98,2.51,4.062,1.089,38.58-1.82,44.2-4.296,8.307-13.14,9.972-19.46,3.66zm-534.6-1.217c0-2.438-0.4917-2.643-2.212-0.9219-3.577,3.577-5.162,2.578-5.162-3.254,0-8.364,9.612-12.31,15.54-6.386,3.668,3.668,3.891,13.7,0.3043,13.7-1.696,0-2.317-1.435-1.796-4.148l0.7974-4.148-2.174,4.148c-2.572,4.908-5.298,5.43-5.298,1.014zm569.7-1.09c-5.422-2.737-7.527-13.69-6.097-31.73,1.169-14.75,1.904-16.91,4.774-14.05,1.25,1.245,2.653,9.348,3.166,18.28,0.8336,14.51,1.275,16.05,4.609,16.05,3.415,0,3.726-1.405,4.214-18.98,0.4276-15.42,1.083-19.19,3.493-20.12,5.669-2.175,8.178,4.775,7.793,21.59-0.4115,17.94-2.262,24.73-7.803,28.61-4.748,3.326-8.098,3.41-14.15,0.356zm-585.5-1.757c-0.6815-1.769-2.075-2.7-3.096-2.068-1.021,0.6311-2.581,0.004-3.466-1.393-1.165-1.84-1.617-1.905-1.638-0.2362-0.0147,1.268-0.8579,2.305-1.872,2.305-2.645,0-2.274-7.925,0.5519-11.79,1.594-2.18,4.216-3.069,7.836-2.657,4.626,0.5264,5.526,1.51,6.015,6.571,0.3161,3.274-0.2503,7.422-1.259,9.219-1.737,3.094-1.899,3.097-3.073,0.0503zm-19.32-6.31c-0.024-2.871-0.3069-2.964-1.879-0.6146-1.602,2.394-2.218,2.284-4.581-0.8133-2.499-3.276-2.731-3.302-2.731-0.3073,0,1.818-1.024,2.914-2.305,2.466-3.587-1.254-2.435-14.45,1.513-17.34,4.82-3.524,10.77-3.005,14.65,1.28,2.761,3.051,3.062,4.937,1.669,10.46-1.8,7.138-6.289,10.59-6.337,4.869zm-38.28-13.46c0.484-5.037,1.936-10.43,3.226-11.98,2.831-3.411,11.76-3.728,14.43-0.5118,2.964,3.571,4.586,11.94,3.304,17.04-1.31,5.221-6.588,6.315-6.674,1.383-0.0535-3.073-0.1455-3.073-1.935,0-2.517,4.321-4.416,4.064-6.821-0.9219l-2.001-4.148-0.1248,4.148c-0.06859,2.282-1.06,4.148-2.203,4.148-1.381,0-1.783-3.072-1.198-9.157zm-10.26,4.225c-0.6672-0.6672-1.24-2.942-1.272-5.054-0.0548-3.585-0.2217-3.626-2.508-0.6146-3.061,4.032-4.808,4.117-4.808,0.2352,0-2.41-0.5218-2.558-2.685-0.7631-6.463,5.364-8.92-5.465-3.371-14.86,3.112-5.268,5.195-6.165,12.51-5.387,6.421,0.683,8.297,3.816,8.297,13.86,0,9.098-3.171,15.57-6.162,12.58zm626-7.974c0.0651-9.176,0.2129-9.542,1.556-3.846,0.8161,3.462,0.7838,8.025-0.0719,10.14-1.115,2.756-1.535,0.9719-1.484-6.294zm31.04-5.422c0-7.039,0.8297-13.31,1.844-13.94,1.167-0.7213,1.844,3.976,1.844,12.8,0,8.062-0.7772,13.94-1.844,13.94-1.052,0-1.844-5.495-1.844-12.8zm-689.6,0.0111c0-0.948,0.8529-3.967,1.895-6.709,2.494-6.559,0.7205-8.185-2.122-1.946-3.39,7.441-7.071,6.2-6.125-2.066l0.7909-6.914-3.032,6.995c-3.209,7.405-8.33,8.727-9.536,2.463-1.06-5.503,5.079-19.3,9.163-20.6,5.09-1.616,11.03,0.1331,15.92,4.69,7.23,6.736,4.771,25.81-3.328,25.81-1.992,0-3.623-0.7757-3.623-1.724zm266.9-1.594-6.914-0.5924,0-12.6c0-9.439,0.6863-12.86,2.737-13.65,2.989-1.147,3.826,0.0782,10.75,15.74,5.06,11.44,4.694,12.06-6.578,11.09zm4.148-7.866c0-4.473-3.157-10.94-5.34-10.94-1.388,0-0.9421,6.753,0.8227,12.45,1.161,3.746,4.518,2.629,4.518-1.504zm14.12,7.556c-4.251-0.7964-6.061-2.892-9.606-11.12-2.402-5.577-4.401-11.91-4.442-14.06-0.0859-4.554,4.897-9.471,7.062-6.969,2.232,2.578,13.4,30.45,12.78,31.87-0.3049,0.6939-2.912,0.8201-5.792,0.2804zm-3.009-15.58c-2.926-8.867-6.396-10.87-4.643-2.685,1.362,6.365,4.452,11.59,5.962,10.08,0.4636-0.4636-0.13-3.791-1.319-7.394zm-41.18,14.19c-2.849-0.4282-4.918-1.341-4.599-2.028,0.3194-0.6874,2.872-5.606,5.672-10.93,4.446-8.454,5.804-9.68,10.72-9.68h5.633l-1.109,10.4c-0.6098,5.722-1.548,11.11-2.086,11.98-0.9884,1.599-4.811,1.666-14.24,0.2495zm9.42-4.569c1.217-1.217,2.212-5.128,2.212-8.692,0-5.495-0.3687-6.069-2.425-3.78-7.286,8.11-7.087,19.77,0.2128,12.47zm-32.69,2.329c-2.135-1.351-1.122-3.638,5.294-11.96,8.116-10.52,9.058-11.05,16.24-9.123,5.452,1.461,5.249,3.254-1.575,13.89-4.864,7.579-6.595,8.915-11.52,8.891-3.19-0.0147-6.988-0.7801-8.44-1.699zm15.52-8.638c3.378-8.084,3.377-8.072,0.4223-8.072-2.999,0-9.289,10.45-7.77,12.91,2.13,3.446,4.553,1.85,7.348-4.838zm54.5-4.619c-3.502-8.224-6.255-16.46-6.116-18.3,0.1386-1.84-0.9368-4.332-2.39-5.538-3.867-3.209-3.25-10.5,1.084-12.82,5.337-2.856,7.8-0.4887,6.961,6.691-0.5576,4.776-0.0417,6.235,2.204,6.235,2.91,0,9.521,11.43,15.83,27.38,3.545,8.962,2.197,11.27-6.594,11.3-4.018,0.0111-5.427-1.906-10.98-14.94zm13.35,8.31c0.629-0.629-1.37-6.124-4.443-12.21-3.656-7.242-6.213-10.44-7.397-9.258-1.185,1.185-0.047,5.406,3.291,12.21,5.004,10.2,6.253,11.55,8.55,9.258zm-16.64-36.83c1.477-1.477-0.4561-6.273-2.529-6.273-0.9056,0-1.646,1.659-1.646,3.687,0,3.594,1.956,4.805,4.175,2.585zm88.74,40.87c-6.217-2.706-13.64-11.77-13.64-16.66,0-2.549,1.298-2.861,7.836-1.882,9.093,1.36,22.14-2.458,33.03-9.666,9.421-6.234,8.987-8.566-0.769-4.137-18.24,8.279-38.26,0.7307-38.26-14.43,0-2.624,1.903-3.14,11.6-3.14,9.949,0,13.08-0.8977,22.03-6.323,5.739-3.478,10.01-7.004,9.499-7.836-0.5141-0.8318-3.816-1.512-7.338-1.512s-9.141-1.144-12.49-2.542c-5.766-2.409-14.08-10.85-14.08-14.3,0-0.8773,7.052-1.595,15.67-1.595,15.79,0,20.71-2.22,9.768-4.407-7.43-1.486-14.38-7.884-14.38-13.24,0-3.861,0.903-4.136,15.58-4.749,18.06-0.7538,21.45-2.694,17.51-10.04-3.542-6.618-2.979-18.46,1.091-22.96,3.301-3.648,3.325-3.647,7.39,0.1707l4.077,3.831,2.022-5.801,2.022-5.801,5.763,4.304c3.17,2.367,6.885,5.106,8.256,6.086,1.759,1.257,3.747,0.6036,6.753-2.22,4.963-4.663,7.095-3.752,11.55,4.937,5.758,11.23,17.94,19.03,33.22,21.25,12.67,1.841,19.84,5.13,24.72,11.34,4.537,5.768,4.258,12.68-0.8257,20.44-3.673,5.605-5.156,5.356-7.663-1.286-1.63-4.317-3.212-5.531-7.21-5.531-4.828,0-4.92,0.1475-1.613,2.566,2.971,2.172,3.134,3.018,1.065,5.511-1.344,1.62-3.093,2.544-3.886,2.054-0.7929-0.49-1.958,0.4547-2.589,2.099-0.9912,2.583-3.359,2.817-17.39,1.72-13.1-1.025-16.67-0.7522-18.47,1.413-5.764,6.945-3.876,38.24,2.934,48.63,5.456,8.327,18.31,12.19,26.32,7.902,2.229-1.193,3.848-1.212,4.563-0.0542,1.571,2.542-3.93,12.49-8.158,14.75-5.93,3.174-18.94,2.205-25.69-1.913l-6.23-3.798-5.211,4.993c-5.035,4.824-5.37,4.889-9.922,1.906-2.591-1.698-6.569-5.955-8.84-9.462-2.271-3.506-4.977-6.385-6.014-6.398-1.036-0.0129-5.021,2.562-8.854,5.722-13.59,11.2-32.42,15.43-44.76,10.06zm29.69-9.127c11.31-5.337,16.79-10.05,19.27-16.58,3.026-7.96-2.174-8.051-12.84-0.225-10.09,7.407-25,13.81-32.16,13.81-5.746,0-7.566,2.91-3.354,5.362,5.724,3.333,19.34,2.22,29.08-2.374zm46.09-1.144c1.247-3.929-0.3312-11.09-2.429-11.02-0.6922,0.0225-3.311,1.618-5.82,3.546-4.486,3.447-4.504,3.569-1.097,7.334,4.372,4.831,7.841,4.883,9.346,0.141zm25.81,1.844c-5.075-2.181-6.879-2.181-5.531,0,0.6267,1.014,2.957,1.785,5.179,1.714,3.895-0.125,3.907-0.1864,0.3521-1.714zm-35.19-24.29c1.355-7.689-0.7233-10.04-6.257-7.078-4.247,2.273-5.196,12.56-1.5,16.26,3.121,3.121,6.24-0.5703,7.757-9.18zm-44.69-5.529c9.753-2.922,31.02-22.41,31.02-28.43,0-2.445-0.5421-4.446-1.205-4.446-0.6625,0-5.494,4.057-10.74,9.015-10.87,10.28-20.94,15.95-31.47,17.71-12.36,2.067-13.33,2.665-9.241,5.673,4.344,3.197,11.99,3.365,21.64,0.4753zm56.49-5.677c1.706-6.358,0.3651-12.74-2.905-13.83-2.889-0.9629-4.657,6.292-3.298,13.53,1.489,7.935,4.121,8.063,6.203,0.3006zm-18.54-3.687c5.098-5.442,8.282-13.79,5.838-15.3-2.398-1.482-16.46,12.58-16.46,16.46,0,4.331,6.096,3.662,10.62-1.166zm20.66-19.7c1.05-1.961,1.909-6.581,1.909-10.26,0-5.912-0.4435-6.558-3.776-5.5-2.077,0.6591-4.888,0.2757-6.247-0.8521-1.817-1.508-3.717-1.482-7.185,0.0974-5.395,2.458-7.324,6.187-5.757,11.13,0.9068,2.857,1.732,3.082,4.965,1.351,3.312-1.773,4.392-1.369,7.405,2.767,4.204,5.771,6.129,6.054,8.686,1.276zm-35.51-10.33c8.793-4.381,9.384-5.111,9.207-11.35-0.1589-5.61,1.01-7.724,7.347-13.29,6.638-5.834,7.639-7.773,8.397-16.27,0.779-8.732,0.4224-9.934-3.759-12.67l-4.619-3.027,1.134,9.577c1.366,11.53-0.7469,11.66-8.863,0.533-6.64-9.105-8.297-9.572-8.297-2.342,0,3.497,2.082,7.838,5.777,12.05,3.177,3.619,5.459,6.854,5.07,7.189-3.896,3.366-12.17,5.403-25.25,6.219-13.72,0.8563-15.24,1.285-12.26,3.465,2.053,1.501,8.296,2.488,15.74,2.488,10.82,0,12.46,0.4567,13.31,3.72,1.767,6.756-6.624,11.3-26.03,14.1-10.03,1.448-6.574,4.232,5.304,4.272,5.341,0.0184,11.81-1.675,17.79-4.654zm73.37-2.693c-0.6267-1.014-3.372-1.856-6.101-1.872-6.093-0.0347-10.45-2.584-8.851-5.176,1.713-2.772,19.79-7.702,28.23-7.702,3.951,0,8.179,0.9956,9.396,2.212,1.625,1.625,2.758,1.667,4.265,0.1604,4.103-4.103-13.33-13.32-25.35-13.41-5.003-0.0356-28,21.65-24.37,22.98,10.08,3.683,24.41,5.449,22.78,2.807zm-50.2-12.91c5.61-4.413,6.872-4.582,6.872-0.9219,0,4.041,2.479,3.391,7.03-1.844,2.204-2.535,5.129-4.609,6.5-4.609s3.994-1.659,5.829-3.687c3.84-4.243,1.661-4.828-3.483-0.9336-2.356,1.783-5.954,2.298-11.12,1.59-6.689-0.9168-8.373-0.3586-13.57,4.498-9.086,8.488-7.494,13.33,1.943,5.909zm34.21-7.477c5.534-7.006,4.317-6.955-2.445,0.102-2.915,3.042-4.522,5.485-3.571,5.429,0.9503-0.056,3.658-2.545,6.016-5.531zm-16.27-12.24c-1.521-0.5436-3.794-2.284-5.051-3.868-2.748-3.463-4.716-2.115-3.092,2.118,0.6965,1.815,3.116,2.971,6.036,2.884,2.777-0.083,3.684-0.5706,2.107-1.134zm1.416-15.31c-2.326-3.725-5.103-4.929-5.103-2.212,0,1.916,3.995,5.9,5.916,5.9,0.8198,0,0.4543-1.659-0.8122-3.687zm-49.35,128.3c0.00006-1.909,11.54-12.18,13.68-12.18,1.281,0,7.063,11.21,6.218,12.06-1.854,1.854-19.9,1.969-19.9,0.1267zm-220-0.5694c-5.305-1.375-2.822-4.508,11.78-14.86,16.24-11.51,19.61-12.82,23.35-9.075,2.52,2.52,1.799,3.975-6.935,14.02-9.09,10.45-10.26,11.19-17.31,10.99-4.158-0.1176-9.057-0.6022-10.89-1.077zm22.32-10.56c4.749-4.487,8.032-8.761,7.295-9.498-1.935-1.935-21.68,11.64-21.68,14.91,0,4.983,5.617,2.869,14.38-5.412zm18.35-14.11c-2.636-1.535-3.227-4.508-3.227-16.23,0-13.73-0.25-14.58-5.713-19.44-4.651-4.144-5.483-5.999-4.478-9.984,3.144-12.46,3.104-16.57-0.2058-21.62-3.406-5.198-11.73-28.73-11.73-33.17,0-4.283,5.659-8.187,11.87-8.187,3.34,0,8.232-1.699,10.87-3.775,4.128-3.247,5.781-3.51,11.83-1.881,9.941,2.677,13.67,5.947,14.45,12.67,0.3836,3.294,4.758,11.45,10.03,18.69l9.347,12.85-2.979,5.761c-1.952,3.774-3.923,5.399-5.716,4.711-1.511-0.5797-2.243-0.2507-1.634,0.7343,1.407,2.277-2.254,9.236-4.859,9.236-1.086,0-3.606,2.074-5.6,4.609-4.483,5.699-6.68,5.814-8.832,0.4609-1.35-3.359-1.69-3.511-1.784-0.8007-0.0643,1.841,0.7583,4.983,1.828,6.982,2.27,4.242,3.136,34.78,1.081,38.11-1.684,2.724-10.07,2.882-14.55,0.2729zm9.121-23.36c-0.5884-8.873-1.586-17.83-2.216-19.9-0.8491-2.794,1.751-7.551,10.03-18.35,6.148-8.019,11.18-15.12,11.18-15.77,0-0.6548-2.474-4.842-5.498-9.304s-5.513-9.933-5.531-12.16c-0.036-4.325-6.297-9.784-11.22-9.784-1.645,0-4.493,1.659-6.329,3.687-2.118,2.34-5.679,3.687-9.747,3.687h-6.41l0.9956,7.423c0.5476,4.082,2.608,10.51,4.578,14.29,1.97,3.776,5.083,9.708,6.918,13.18,2.879,5.45,3.039,7.426,1.168,14.42-1.942,7.261-1.78,8.601,1.548,12.83,2.886,3.669,3.716,7.484,3.716,17.07,0,12.88,0.6721,14.81,5.172,14.81,2.264,0,2.537-2.673,1.644-16.13zm-13.43-56.46c-2.05-5.341,0.0383-9.456,4.799-9.456,3.864,0,4.584,0.8685,4.584,5.531,0,4.336-0.8985,5.659-4.157,6.121-2.438,0.3462-4.599-0.5624-5.226-2.197zm25.05,30.88c0-2.45-0.5006-2.576-2.766-0.6961-1.521,1.262-2.766,2.608-2.766,2.991,0,0.3829,1.245,0.6961,2.766,0.6961s2.766-1.346,2.766-2.991zm14.75-25.04c0-0.7596-3.526,2.541-7.836,7.335s-8.251,9.131-8.758,9.638-2.048,2.581-3.424,4.609,2.565-1.688,8.758-8.257c6.193-6.57,11.26-12.57,11.26-13.33zm-5.531,16.97c0-1.014-0.8297-1.844-1.844-1.844s-1.844,0.8297-1.844,1.844,0.8297,1.844,1.844,1.844,1.844-0.8297,1.844-1.844zm8.464-12.43c-1.279-1.279-4.777,1.319-4.777,3.548,0,1.223,1.058,1.083,2.81-0.3716,1.546-1.283,2.43-2.712,1.966-3.176zm-21.37,68.1c0-4.516,4.608-8.478,8.24-7.084,4.013,1.54,0.6926,9.341-4.292,10.08-2.885,0.4305-3.948-0.3776-3.948-3.001zm13.66-1.041c-1.868-4.869,0.0358-9.241,5.295-12.16,4.529-2.51,5.303-2.518,6.873-0.0634,0.9731,1.521,1.782,3.644,1.797,4.718,0.0883,6.106-12.01,12.6-13.96,7.501zm8.462-5.92c0-3.256-3.969-2.689-5.109,0.7298-0.4014,1.204,0.5838,2.189,2.189,2.189,1.606,0,2.919-1.314,2.919-2.919zm-20.28-8.034c0-2.982,0.7804-5.905,1.734-6.494,0.9968-0.616,0.4288-3.347-1.335-6.421-2.9-5.053-2.878-5.56,0.3893-9.171,2.643-2.921,4.045-3.336,5.945-1.759,1.942,1.612,2.486,1.269,2.486-1.564,0-1.995,1.638-5.11,3.641-6.922,3.531-3.195,3.7-3.139,5.606,1.876,2.598,6.832,1.126,10.07-4.58,10.07-4.969,0-5.639,2.016-4.781,14.38,0.4498,6.477-2.397,11.44-6.565,11.44-1.582,0-2.54-2.046-2.54-5.422zm5.531-1.139c0-1.581-0.8297-2.362-1.844-1.735-1.014,0.6267-1.844,1.92-1.844,2.874,0,0.9542,0.8297,1.735,1.844,1.735s1.844-1.293,1.844-2.874zm0-16.48c0-1.521-0.8297-2.766-1.844-2.766s-1.844,1.245-1.844,2.766,0.8297,2.766,1.844,2.766,1.844-1.245,1.844-2.766zm11.06-8.406c0-0.9542-0.8297-1.735-1.844-1.735s-1.844,1.293-1.844,2.874,0.8297,2.362,1.844,1.735c1.014-0.6267,1.844-1.92,1.844-2.874zm-4.302,24.69c-2.037-2.037-1.383-10.79,0.9833-13.15,1.217-1.217,3.706-2.212,5.531-2.212,4.86,0,4.656,12.06-0.2475,14.68-4.2,2.248-4.65,2.297-6.267,0.6794zm6.146-9.02c0-1.461-0.8297-2.657-1.844-2.657s-1.844,1.708-1.844,3.796,0.8297,3.284,1.844,2.657c1.014-0.6267,1.844-2.335,1.844-3.796zm6.325-3.433c-1.561-6.219-0.4363-10.46,3.407-12.85,3.963-2.467,6.79,0.9206,6.833,8.191,0.0531,8.832-8.246,12.61-10.24,4.663zm7.503-6.292c0-3.609-3.593-3.303-4.299,0.366-0.4313,2.239,0.203,3.15,1.818,2.612,1.364-0.4548,2.481-1.795,2.481-2.978zm-95.41-10.92c-8.524-1.719-14.29-3.797-14.29-5.151,0-1.248,3.526-3.678,7.836-5.4,12.78-5.105,14.28-7.254,5.836-8.333-7.072-0.9031-7.214-1.07-6.977-8.194,0.199-5.977,1.582-8.522,7.764-14.29,8.171-7.622,16.81-9.552,16.97-3.79,0.0483,1.775,3.285,9.864,7.193,17.98,6.831,14.18,7.003,15,4.45,21.14-4.323,10.4-5.717,10.69-28.79,6.042zm21.78-8.659c2.801-4.275,2.717-4.863-1.525-10.6-2.47-3.342-5.767-9.394-7.327-13.45-3.315-8.618-6.069-9.235-11.11-2.489-4.208,5.636-3.022,8.942,3.208,8.942,7.732,0,10.18,1.937,10.18,8.051,0,3.948-1.27,6.605-3.958,8.284-3.196,1.996-3.462,2.786-1.383,4.103,4.512,2.857,8.856,1.822,11.91-2.839zm61.56,7.043c-1.404-3.693-1.162-5.904,1.01-9.219,3.869-5.904,7.391-5.483,10.17,1.218,1.999,4.826,1.867,6.069-0.9839,9.219-4.508,4.982-7.994,4.565-10.19-1.218zm8.161-2.144c1.458-2.359-1.924-6.499-4.173-5.11-2.96,1.829-2.522,6.58,0.6069,6.58,1.461,0,3.066-0.6619,3.566-1.471zm-123.1-4.194c-5.495-4.322-6.08-8.749-2.157-16.33,2.545-4.921,17.96-16.72,21.84-16.72,1.064,0,1.359,4.137,0.7288,10.24-0.8422,8.16-2.046,11.02-5.928,14.07-3.68,2.895-4.603,4.899-3.775,8.198,1.425,5.679-3.842,5.947-10.71,0.545zm8.364-12.14c1.854-1.678,3.345-4.79,3.313-6.914-0.054-3.578-0.3932-3.482-4.609,1.31-6.768,7.693-5.772,12,1.296,5.604z"/>
</svg>
