<?xml version="1.0" encoding="utf-8"?>
<!-- Generator: Adobe Illustrator 19.0.0, SVG Export Plug-In . SVG Version: 6.00 Build 0)  -->
<svg version="1.1" id="Capa_1" xmlns="http://www.w3.org/2000/svg" xmlns:xlink="http://www.w3.org/1999/xlink" x="0px" y="0px"
	 viewBox="0 0 792 612" style="enable-background:new 0 0 792 612;" xml:space="preserve">
<style type="text/css">
	.st0{fill:#12110C;}
</style>
<g>
	<g>
		<g>
			<path class="st0" d="M121.8,365.9v-0.1c0-10.6,7.9-19.4,18.7-19.4c6.7,0,10.7,2.5,14.6,6l-2,2c-3.3-3.2-7-5.5-12.6-5.5
				c-9,0-15.8,7.3-15.8,16.8v0.1c0,9.5,6.9,16.9,15.8,16.9c5.4,0,9.1-2.1,12.9-5.8l1.9,1.8c-4,3.9-8.2,6.5-14.9,6.5
				C129.7,385.1,121.8,376.6,121.8,365.9z"/>
			<path class="st0" d="M159.1,365.9v-0.1c0-10.2,7.5-19.4,18.9-19.4s18.8,9,18.8,19.3v0.1c0,10.2-7.5,19.4-18.9,19.4
				C166.6,385.1,159.1,376.1,159.1,365.9z M193.9,365.9v-0.1c0-9.3-6.7-16.9-16-16.9c-9.3,0-15.9,7.5-15.9,16.8v0.1
				c0,9.3,6.7,16.9,16,16.9C187.3,382.6,193.9,375.1,193.9,365.9z"/>
			<path class="st0" d="M186.4,365.9v-0.1c0-10.2,7.5-19.4,18.9-19.4c11.3,0,18.8,9,18.8,19.3v0.1c0,10.2-7.5,19.4-18.9,19.4
				C193.9,385.1,186.4,376.1,186.4,365.9z M221.2,365.9v-0.1c0-9.3-6.7-16.9-16-16.9c-9.3,0-15.9,7.5-15.9,16.8v0.1
				c0,9.3,6.7,16.9,16,16.9C214.6,382.6,221.2,375.1,221.2,365.9z"/>
			<path class="st0" d="M228.2,347H244c4.6,0,8.3,1.4,10.5,3.7c1.8,1.8,2.8,4.3,2.8,7v0.1c0,6.3-4.7,9.8-11,10.7l12.4,16h-3.5
				L243.3,369H231v15.5h-2.8V347z M243.7,366.4c6.3,0,10.9-3.2,10.9-8.6v-0.1c0-5-4-8.2-10.8-8.2H231v16.9H243.7z"/>
			<path class="st0" d="M262.7,347h12.5c11.8,0,19.9,8.1,19.9,18.6v0.1c0,10.5-8.1,18.7-19.9,18.7h-12.5V347z M275.1,381.9
				c10.4,0,17-7.1,17-16.1v-0.1c0-8.9-6.6-16.2-17-16.2h-9.7v32.3H275.1z"/>
			<path class="st0" d="M300.6,347h2.8v37.5h-2.8V347z"/>
			<path class="st0" d="M310.6,347h2.6l25.9,32.6V347h2.7v37.5h-2.1l-26.4-33.3v33.3h-2.7V347z"/>
			<path class="st0" d="M358.6,346.7h2.7l17.5,37.7h-3.1l-4.8-10.5h-22.1l-4.8,10.5h-2.9L358.6,346.7z M369.7,371.5l-9.8-21.7
				l-9.9,21.7H369.7z"/>
			<path class="st0" d="M376.4,365.9v-0.1c0-10.6,7.9-19.4,18.7-19.4c6.7,0,10.7,2.5,14.6,6l-2,2c-3.3-3.2-7-5.5-12.6-5.5
				c-9,0-15.8,7.3-15.8,16.8v0.1c0,9.5,6.9,16.9,15.8,16.9c5.4,0,9.1-2.1,12.9-5.8l1.9,1.8c-4,3.9-8.2,6.5-14.9,6.5
				C384.3,385.1,376.4,376.6,376.4,365.9z"/>
			<path class="st0" d="M414.7,347h2.8v37.5h-2.8V347z"/>
			<path class="st0" d="M422,365.9v-0.1c0-10.2,7.5-19.4,18.9-19.4c11.3,0,18.8,9,18.8,19.3v0.1c0,10.2-7.5,19.4-18.9,19.4
				C429.5,385.1,422,376.1,422,365.9z M456.8,365.9v-0.1c0-9.3-6.7-16.9-16-16.9c-9.3,0-15.9,7.5-15.9,16.8v0.1
				c0,9.3,6.7,16.9,16,16.9C450.2,382.6,456.8,375.1,456.8,365.9z M444.7,336.7l3.2,1.5l-5.7,4.8h-2.4L444.7,336.7z"/>
			<path class="st0" d="M463.8,347h2.6l25.9,32.6V347h2.7v37.5h-2.1l-26.4-33.3v33.3h-2.7V347z"/>
			<path class="st0" d="M511.5,347h12.5c11.8,0,19.9,8.1,19.9,18.6v0.1c0,10.5-8.1,18.7-19.9,18.7h-12.5V347z M523.9,381.9
				c10.4,0,17-7.1,17-16.1v-0.1c0-8.9-6.6-16.2-17-16.2h-9.7v32.3H523.9z"/>
			<path class="st0" d="M544.8,347h26.7v2.6h-23.9v14.7H569v2.6h-21.5v15h24.1v2.6h-26.9V347z"/>
			<path class="st0" d="M587,347h2.8v34.9h22v2.6H587V347z"/>
			<path class="st0" d="M603.5,365.9v-0.1c0-10.2,7.5-19.4,18.9-19.4c11.3,0,18.8,9,18.8,19.3v0.1c0,10.2-7.5,19.4-18.9,19.4
				S603.5,376.1,603.5,365.9z M638.3,365.9v-0.1c0-9.3-6.7-16.9-16-16.9s-15.9,7.5-15.9,16.8v0.1c0,9.3,6.7,16.9,16,16.9
				C631.7,382.6,638.3,375.1,638.3,365.9z"/>
			<path class="st0" d="M640.5,379l1.8-2.1c4.1,3.8,7.9,5.6,13.4,5.6c5.6,0,9.5-3.2,9.5-7.4V375c0-4-2.1-6.3-10.6-8
				c-9-1.8-12.6-4.9-12.6-10.5v-0.1c0-5.6,5.1-9.8,12-9.8c5.5,0,9,1.5,12.8,4.6l-1.8,2.2c-3.5-3.1-7.1-4.2-11.2-4.2
				c-5.5,0-9.2,3.2-9.2,7.1v0.1c0,4,2,6.4,10.9,8.2c8.7,1.8,12.3,4.9,12.3,10.3v0.1c0,6-5.2,10.2-12.4,10.2
				C649.6,385,645,383,640.5,379z"/>
		</g>
		<g>
			<path class="st0" d="M121,428.4l1.8-2.1c4.1,3.8,7.9,5.6,13.4,5.6c5.6,0,9.5-3.2,9.5-7.4v-0.1c0-4-2.1-6.3-10.6-8
				c-9-1.8-12.6-4.9-12.6-10.5v-0.1c0-5.6,5.1-9.8,12-9.8c5.5,0,9,1.5,12.8,4.6l-1.8,2.2c-3.5-3.1-7.1-4.2-11.2-4.2
				c-5.5,0-9.2,3.2-9.2,7.1v0.1c0,4,2,6.4,10.9,8.2c8.7,1.8,12.3,4.9,12.3,10.3v0.1c0,6-5.2,10.2-12.4,10.2
				C130.1,434.4,125.5,432.4,121,428.4z"/>
			<path class="st0" d="M153.4,396.4h26.7v2.6h-23.9v14.7h21.5v2.6h-21.5v15h24.1v2.6h-26.9V396.4z"/>
			<path class="st0" d="M185,396.4h15.7c4.6,0,8.3,1.4,10.5,3.7c1.8,1.8,2.8,4.3,2.8,7v0.1c0,6.3-4.7,9.8-11,10.7l12.4,16H212
				L200,418.4h-12.3v15.5H185V396.4z M200.4,415.8c6.3,0,10.9-3.2,10.9-8.6v-0.1c0-5-4-8.2-10.8-8.2h-12.8v16.9H200.4z"/>
			<path class="st0" d="M216.2,396.4h3.1l14.7,34.5l14.7-34.5h2.9l-16.5,37.7h-2.5L216.2,396.4z"/>
			<path class="st0" d="M253.5,396.4h2.8v37.5h-2.8V396.4z"/>
			<path class="st0" d="M261.9,415.3v-0.1c0-10.6,7.9-19.4,18.7-19.4c6.7,0,10.7,2.5,14.6,6l-2,2c-3.3-3.2-7-5.5-12.6-5.5
				c-9,0-15.8,7.3-15.8,16.8v0.1c0,9.5,6.9,16.9,15.8,16.9c5.4,0,9.1-2.1,12.9-5.8l1.9,1.8c-4,3.9-8.2,6.5-14.9,6.5
				C269.8,434.5,261.9,426,261.9,415.3z"/>
			<path class="st0" d="M300.2,396.4h2.8v37.5h-2.8V396.4z"/>
			<path class="st0" d="M307.5,415.3v-0.1c0-10.2,7.5-19.4,18.9-19.4c11.3,0,18.8,9,18.8,19.3v0.1c0,10.2-7.5,19.4-18.9,19.4
				S307.5,425.5,307.5,415.3z M342.3,415.3v-0.1c0-9.3-6.7-16.9-16-16.9s-15.9,7.5-15.9,16.8v0.1c0,9.3,6.7,16.9,16,16.9
				C335.6,432,342.3,424.5,342.3,415.3z"/>
			<path class="st0" d="M347.7,428.4l1.8-2.1c4.1,3.8,7.9,5.6,13.4,5.6c5.6,0,9.5-3.2,9.5-7.4v-0.1c0-4-2.1-6.3-10.6-8
				c-9-1.8-12.6-4.9-12.6-10.5v-0.1c0-5.6,5.1-9.8,12-9.8c5.5,0,9,1.5,12.8,4.6l-1.8,2.2c-3.5-3.1-7.1-4.2-11.2-4.2
				c-5.5,0-9.2,3.2-9.2,7.1v0.1c0,4,2,6.4,10.9,8.2c8.7,1.8,12.3,4.9,12.3,10.3v0.1c0,6-5.2,10.2-12.4,10.2
				C356.8,434.4,352.2,432.4,347.7,428.4z"/>
			<path class="st0" d="M390.8,396.4h12.5c11.8,0,19.9,8.1,19.9,18.6v0.1c0,10.5-8.1,18.7-19.9,18.7h-12.5V396.4z M403.2,431.3
				c10.4,0,17-7.1,17-16.1v-0.1c0-8.9-6.6-16.2-17-16.2h-9.7v32.3H403.2z"/>
			<path class="st0" d="M425.1,396.4h26.7v2.6h-23.9v14.7h21.5v2.6h-21.5v15H452v2.6h-26.9V396.4z"/>
		</g>
		<g>
			<path class="st0" d="M121.8,467v-0.1c0-10.6,7.9-19.4,18.7-19.4c6.7,0,10.7,2.5,14.6,6l-2,2c-3.3-3.2-7-5.5-12.6-5.5
				c-9,0-15.8,7.3-15.8,16.8v0.1c0,9.5,6.9,16.9,15.8,16.9c5.4,0,9.1-2.1,12.9-5.8l1.9,1.8c-4,3.9-8.2,6.5-14.9,6.5
				C129.7,486.2,121.8,477.7,121.8,467z"/>
			<path class="st0" d="M158.1,467v-0.1c0-10.2,7.5-19.4,18.9-19.4c11.3,0,18.8,9,18.8,19.3v0.1c0,10.2-7.5,19.4-18.9,19.4
				S158.1,477.2,158.1,467z M192.9,467v-0.1c0-9.3-6.7-16.9-16-16.9c-9.3,0-15.9,7.5-15.9,16.8v0.1c0,9.3,6.7,16.9,16,16.9
				C186.2,483.7,192.9,476.2,192.9,467z M180.8,437.8l3.2,1.5l-5.7,4.8h-2.4L180.8,437.8z"/>
			<path class="st0" d="M200.9,448.1h2.6l15,22.2l15-22.2h2.6v37.5h-2.8V453l-14.8,21.6h-0.2L203.6,453v32.5h-2.7V448.1z"/>
			<path class="st0" d="M242.1,448.1h13.6c8.2,0,13.9,4.2,13.9,11.5v0.1c0,7.9-6.8,11.9-14.6,11.9h-10.1v14h-2.8V448.1z
				 M255.1,469.1c7,0,11.7-3.6,11.7-9.2v-0.1c0-5.9-4.6-9-11.3-9h-10.6v18.4H255.1z"/>
			<path class="st0" d="M275.1,470v-21.9h2.8v21.6c0,8.8,4.8,13.9,12.7,13.9c7.6,0,12.5-4.6,12.5-13.7v-21.9h2.8v21.6
				c0,10.8-6.3,16.5-15.4,16.5C281.5,486.2,275.1,480.5,275.1,470z"/>
			<path class="st0" d="M320.3,450.7h-13.1v-2.6h28.9v2.6h-13.1v34.9h-2.8V450.7z"/>
			<path class="st0" d="M336.8,467v-0.1c0-10.2,7.5-19.4,18.9-19.4c11.3,0,18.8,9,18.8,19.3v0.1c0,10.2-7.5,19.4-18.9,19.4
				S336.8,477.2,336.8,467z M371.6,467v-0.1c0-9.3-6.7-16.9-16-16.9c-9.3,0-15.9,7.5-15.9,16.8v0.1c0,9.3,6.7,16.9,16,16.9
				C365,483.7,371.6,476.2,371.6,467z"/>
		</g>
	</g>
	<g>
		<path class="st0" d="M121.9,496.4h27.9v6h-21.3v10.2h18.9v6h-18.9v15.3h-6.6V496.4z"/>
		<path class="st0" d="M158.5,496.2h6.1l16.5,37.7h-7l-3.8-9h-17.7l-3.9,9h-6.7L158.5,496.2z M168,519l-6.5-15l-6.4,15H168z"/>
		<path class="st0" d="M177.2,515.3v-0.1c0-10.7,8-19.4,19.3-19.4c6.9,0,11.1,2.4,14.7,5.8l-4.2,4.9c-3-2.8-6.2-4.7-10.5-4.7
			c-7.2,0-12.4,5.9-12.4,13.2v0.1c0,7.3,5.2,13.3,12.4,13.3c4.6,0,7.5-1.9,10.8-4.9l4.2,4.3c-3.9,4.1-8.2,6.6-15.2,6.6
			C185.3,534.5,177.2,526,177.2,515.3z"/>
		<path class="st0" d="M212.4,518v-21.6h6.6v21.3c0,7,3.6,10.7,9.5,10.7c5.8,0,9.4-3.5,9.4-10.4v-21.6h6.6v21.3
			c0,11.2-6.3,16.8-16.1,16.8C218.6,534.5,212.4,528.9,212.4,518z"/>
		<path class="st0" d="M247.1,496.4h6.6v31.5h19.7v6h-26.3V496.4z"/>
		<path class="st0" d="M274.4,502.5h-11.9v-6.1H293v6.1h-11.9v31.4h-6.6V502.5z"/>
		<path class="st0" d="M299.8,496.2h6.1l16.5,37.7h-7l-3.8-9h-17.7l-3.9,9h-6.7L299.8,496.2z M309.2,519l-6.5-15l-6.4,15H309.2z"/>
		<path class="st0" d="M319.2,496.4h14c11.8,0,19.9,8.1,19.9,18.6v0.1c0,10.5-8.1,18.7-19.9,18.7h-14V496.4z M333.2,527.9
			c7.9,0,13-5.3,13-12.6v-0.1c0-7.3-5.1-12.7-13-12.7h-7.4v25.5H333.2z"/>
		<path class="st0" d="M365.3,496.4h14c11.8,0,19.9,8.1,19.9,18.6v0.1c0,10.5-8.1,18.7-19.9,18.7h-14V496.4z M379.3,527.9
			c7.9,0,13-5.3,13-12.6v-0.1c0-7.3-5.1-12.7-13-12.7h-7.4v25.5H379.3z"/>
		<path class="st0" d="M400.8,496.4h27.8v5.9h-21.2v9.7h18.8v5.9h-18.8V528h21.5v5.9h-28V496.4z"/>
		<path class="st0" d="M439.2,515.3v-0.1c0-10.7,8-19.4,19.3-19.4c6.9,0,11.1,2.4,14.7,5.8l-4.2,4.9c-3-2.8-6.2-4.7-10.5-4.7
			c-7.2,0-12.4,5.9-12.4,13.2v0.1c0,7.3,5.2,13.3,12.4,13.3c4.6,0,7.5-1.9,10.8-4.9l4.2,4.3c-3.9,4.1-8.2,6.6-15.2,6.6
			C447.4,534.5,439.2,526,439.2,515.3z"/>
		<path class="st0" d="M478.6,496.4h6.6v37.5h-6.6V496.4z"/>
		<path class="st0" d="M491,496.4h27.8v5.9h-21.2v9.7h18.8v5.9h-18.8V528H519v5.9h-28V496.4z"/>
		<path class="st0" d="M521.5,496.4h6.1l20.1,25.9v-25.9h6.5v37.5h-5.5l-20.7-26.7v26.7h-6.5V496.4z"/>
		<path class="st0" d="M555.7,515.3v-0.1c0-10.7,8-19.4,19.3-19.4c6.9,0,11.1,2.4,14.7,5.8l-4.2,4.9c-3-2.8-6.2-4.7-10.5-4.7
			c-7.2,0-12.4,5.9-12.4,13.2v0.1c0,7.3,5.2,13.3,12.4,13.3c4.6,0,7.5-1.9,10.8-4.9l4.2,4.3c-3.9,4.1-8.2,6.6-15.2,6.6
			C563.8,534.5,555.7,526,555.7,515.3z"/>
		<path class="st0" d="M591.9,496.4h6.6v37.5h-6.6V496.4z"/>
		<path class="st0" d="M613.2,496.2h6.1l16.5,37.7h-7l-3.8-9h-17.7l-3.9,9h-6.7L613.2,496.2z M622.6,519l-6.5-15l-6.4,15H622.6z"/>
		<path class="st0" d="M632.6,528.4l4-4.7c3.6,3.1,7.2,4.9,11.8,4.9c4.1,0,6.6-1.9,6.6-4.7v-0.1c0-2.7-1.5-4.1-8.5-5.7
			c-8-1.9-12.5-4.3-12.5-11.2v-0.1c0-6.4,5.4-10.9,12.8-10.9c5.5,0,9.8,1.7,13.6,4.7l-3.5,5c-3.4-2.5-6.7-3.9-10.2-3.9
			c-3.9,0-6.1,2-6.1,4.4v0.1c0,2.9,1.7,4.2,8.9,5.9c7.9,1.9,12,4.8,12,11v0.1c0,7-5.5,11.2-13.4,11.2
			C642.5,534.4,637.1,532.4,632.6,528.4z"/>
	</g>
</g>
<g>
	<g>
		<path class="st0" d="M479.6,80l-0.2,0L428,80.9c0,0-29.5-4.9-71.7,77c-42,81.5-80.7,105.5-102.9,112.2c-5.9,1.4-12.3,2.2-19.4,2.2
			c-41.9,0-72.2-35-72.2-77.8v-0.6c0-42.8,30.3-77.2,72.2-77.2c25,0,43.7,10.9,61.2,27.2l24.7-28.4c-20.9-20-45.3-34-85.6-34
			c-66.2,0-112.8,50.9-112.8,113.1v0.6c0,62.8,47.5,112.5,111.2,112.5c0,0,3.4,0.3,9.4-0.3c35.3-2.1,58.2-16.5,79.1-38.2
			c20.8-18.8,42.3-46.8,61.2-88.4c35.6-78.4,83.7-92.6,97.2-100.7L479.6,80z"/>
		<path class="st0" d="M308.6,307.6l0.2,0l51.4-0.9c0,0,29.5,4.9,71.7-77c42-81.5,80.7-105.5,102.9-112.2c5.9-1.4,12.3-2.2,19.4-2.2
			c41.9,0,72.2,35,72.2,77.8v0.6c0,42.8-30.3,77.2-72.2,77.2c-25,0-43.7-10.9-61.2-27.2l-24.7,28.4c20.9,20,45.3,34,85.6,34
			c66.2,0,112.8-50.9,112.8-113.1v-0.6c0-62.8-47.5-112.5-111.2-112.5c0,0-3.4-0.3-9.4,0.3c-35.3,2.1-58.2,16.5-79.1,38.2
			c-20.8,18.8-42.3,46.8-61.2,88.4c-35.6,78.4-83.7,92.6-97.2,100.7L308.6,307.6z"/>
		<line class="st0" x1="479.6" y1="80" x2="479.7" y2="80"/>
	</g>
</g>
</svg>
